<svg width="640" height="386" viewBox="0 0 640 386" fill="none" xmlns="http://www.w3.org/2000/svg">
<path d="M570.173 112.203C570.173 112.973 569.55 113.596 568.782 113.596C568.015 113.596 567.392 112.973 567.392 112.203C567.392 111.433 568.015 110.81 568.782 110.81C569.55 110.81 570.173 111.433 570.173 112.203Z" fill="#9871F5" stroke="#9871F5"/>
<path d="M570.173 125.428C570.173 126.198 569.55 126.821 568.783 126.821C568.015 126.821 567.392 126.198 567.392 125.428C567.392 124.658 568.015 124.035 568.783 124.035C569.55 124.035 570.173 124.658 570.173 125.428Z" fill="#9871F5" stroke="#9871F5"/>
<path d="M570.173 138.643C570.173 139.413 569.55 140.037 568.783 140.037C568.015 140.037 567.392 139.413 567.392 138.643C567.392 137.873 568.015 137.25 568.783 137.25C569.55 137.25 570.173 137.873 570.173 138.643Z" fill="#9871F5" stroke="#9871F5"/>
<path d="M570.173 151.868C570.173 152.639 569.55 153.262 568.783 153.262C568.015 153.262 567.392 152.639 567.392 151.868C567.392 151.098 568.015 150.475 568.783 150.475C569.55 150.475 570.173 151.098 570.173 151.868Z" fill="#9871F5" stroke="#9871F5"/>
<path d="M570.173 165.083C570.173 165.854 569.55 166.477 568.783 166.477C568.015 166.477 567.392 165.854 567.392 165.083C567.392 164.313 568.015 163.69 568.783 163.69C569.55 163.69 570.173 164.313 570.173 165.083Z" fill="#9871F5" stroke="#9871F5"/>
<path d="M570.173 178.309C570.173 179.079 569.55 179.702 568.783 179.702C568.015 179.702 567.392 179.079 567.392 178.309C567.392 177.538 568.015 176.915 568.783 176.915C569.55 176.915 570.173 177.538 570.173 178.309Z" fill="#9871F5" stroke="#9871F5"/>
<path d="M570.173 191.524C570.173 192.294 569.55 192.917 568.783 192.917C568.015 192.917 567.392 192.294 567.392 191.524C567.392 190.754 568.015 190.13 568.783 190.13C569.55 190.13 570.173 190.754 570.173 191.524Z" fill="#9871F5" stroke="#9871F5"/>
<path d="M556.966 112.203C556.966 112.973 556.343 113.596 555.575 113.596C554.808 113.596 554.185 112.973 554.185 112.203C554.185 111.433 554.808 110.81 555.575 110.81C556.343 110.81 556.966 111.433 556.966 112.203Z" fill="#9871F5" stroke="#9871F5"/>
<path d="M556.966 125.428C556.966 126.198 556.343 126.821 555.575 126.821C554.808 126.821 554.185 126.198 554.185 125.428C554.185 124.658 554.808 124.035 555.575 124.035C556.343 124.035 556.966 124.658 556.966 125.428Z" fill="#9871F5" stroke="#9871F5"/>
<path d="M556.966 138.643C556.966 139.413 556.343 140.037 555.575 140.037C554.808 140.037 554.185 139.413 554.185 138.643C554.185 137.873 554.808 137.25 555.575 137.25C556.343 137.25 556.966 137.873 556.966 138.643Z" fill="#9871F5" stroke="#9871F5"/>
<path d="M556.966 151.868C556.966 152.639 556.343 153.262 555.575 153.262C554.808 153.262 554.185 152.639 554.185 151.868C554.185 151.098 554.808 150.475 555.575 150.475C556.343 150.475 556.966 151.098 556.966 151.868Z" fill="#9871F5" stroke="#9871F5"/>
<path d="M556.966 165.083C556.966 165.854 556.343 166.477 555.575 166.477C554.808 166.477 554.185 165.854 554.185 165.083C554.185 164.313 554.808 163.69 555.575 163.69C556.343 163.69 556.966 164.313 556.966 165.083Z" fill="#9871F5" stroke="#9871F5"/>
<path d="M556.966 178.309C556.966 179.079 556.343 179.702 555.575 179.702C554.808 179.702 554.185 179.079 554.185 178.309C554.185 177.538 554.808 176.915 555.575 176.915C556.343 176.915 556.966 177.538 556.966 178.309Z" fill="#9871F5" stroke="#9871F5"/>
<path d="M556.966 191.524C556.966 192.294 556.343 192.917 555.575 192.917C554.808 192.917 554.185 192.294 554.185 191.524C554.185 190.754 554.808 190.13 555.575 190.13C556.343 190.13 556.966 190.754 556.966 191.524Z" fill="#9871F5" stroke="#9871F5"/>
<path d="M543.769 112.203C543.769 112.973 543.146 113.596 542.379 113.596C541.611 113.596 540.988 112.973 540.988 112.203C540.988 111.433 541.611 110.81 542.379 110.81C543.146 110.81 543.769 111.433 543.769 112.203Z" fill="#9871F5" stroke="#9871F5"/>
<path d="M543.769 125.428C543.769 126.198 543.146 126.821 542.379 126.821C541.611 126.821 540.988 126.198 540.988 125.428C540.988 124.658 541.611 124.035 542.379 124.035C543.146 124.035 543.769 124.658 543.769 125.428Z" fill="#9871F5" stroke="#9871F5"/>
<path d="M543.769 138.643C543.769 139.413 543.146 140.037 542.379 140.037C541.611 140.037 540.988 139.413 540.988 138.643C540.988 137.873 541.611 137.25 542.379 137.25C543.146 137.25 543.769 137.873 543.769 138.643Z" fill="#9871F5" stroke="#9871F5"/>
<path d="M543.769 151.868C543.769 152.639 543.146 153.262 542.379 153.262C541.611 153.262 540.988 152.639 540.988 151.868C540.988 151.098 541.611 150.475 542.379 150.475C543.146 150.475 543.769 151.098 543.769 151.868Z" fill="#9871F5" stroke="#9871F5"/>
<path d="M543.769 165.083C543.769 165.854 543.146 166.477 542.379 166.477C541.611 166.477 540.988 165.854 540.988 165.083C540.988 164.313 541.611 163.69 542.379 163.69C543.146 163.69 543.769 164.313 543.769 165.083Z" fill="#9871F5" stroke="#9871F5"/>
<path d="M543.769 178.309C543.769 179.079 543.146 179.702 542.379 179.702C541.611 179.702 540.988 179.079 540.988 178.309C540.988 177.538 541.611 176.915 542.379 176.915C543.146 176.915 543.769 177.538 543.769 178.309Z" fill="#9871F5" stroke="#9871F5"/>
<path d="M543.769 191.524C543.769 192.294 543.146 192.917 542.379 192.917C541.611 192.917 540.988 192.294 540.988 191.524C540.988 190.754 541.611 190.13 542.379 190.13C543.146 190.13 543.769 190.754 543.769 191.524Z" fill="#9871F5" stroke="#9871F5"/>
<path d="M530.562 112.203C530.562 112.973 529.939 113.596 529.171 113.596C528.404 113.596 527.781 112.973 527.781 112.203C527.781 111.433 528.404 110.81 529.171 110.81C529.939 110.81 530.562 111.433 530.562 112.203Z" fill="#9871F5" stroke="#9871F5"/>
<path d="M530.562 125.428C530.562 126.198 529.939 126.822 529.171 126.822C528.404 126.822 527.781 126.198 527.781 125.428C527.781 124.658 528.404 124.035 529.171 124.035C529.939 124.035 530.562 124.658 530.562 125.428Z" fill="#9871F5" stroke="#9871F5"/>
<path d="M530.562 138.643C530.562 139.413 529.939 140.037 529.171 140.037C528.404 140.037 527.781 139.413 527.781 138.643C527.781 137.873 528.404 137.25 529.171 137.25C529.939 137.25 530.562 137.873 530.562 138.643Z" fill="#9871F5" stroke="#9871F5"/>
<path d="M530.562 151.868C530.562 152.639 529.939 153.262 529.171 153.262C528.404 153.262 527.781 152.639 527.781 151.868C527.781 151.098 528.404 150.475 529.171 150.475C529.939 150.475 530.562 151.098 530.562 151.868Z" fill="#9871F5" stroke="#9871F5"/>
<path d="M530.562 165.083C530.562 165.854 529.939 166.477 529.171 166.477C528.404 166.477 527.781 165.854 527.781 165.083C527.781 164.313 528.404 163.69 529.171 163.69C529.939 163.69 530.562 164.313 530.562 165.083Z" fill="#9871F5" stroke="#9871F5"/>
<path d="M530.562 178.309C530.562 179.079 529.939 179.702 529.171 179.702C528.404 179.702 527.781 179.079 527.781 178.309C527.781 177.538 528.404 176.915 529.171 176.915C529.939 176.915 530.562 177.538 530.562 178.309Z" fill="#9871F5" stroke="#9871F5"/>
<path d="M530.562 191.524C530.562 192.294 529.939 192.917 529.171 192.917C528.404 192.917 527.781 192.294 527.781 191.524C527.781 190.754 528.404 190.13 529.171 190.13C529.939 190.13 530.562 190.754 530.562 191.524Z" fill="#9871F5" stroke="#9871F5"/>
<path d="M95.2471 375.903C97.47 372.589 98.7575 368.339 101.745 365.911C105.175 363.142 109.893 363.504 114.238 363.454C118.573 363.413 123.472 362.436 125.524 358.246C126.65 355.95 126.66 353.109 127.455 350.621C128.32 347.892 130.07 345.716 131.307 343.198C132.535 340.68 133.198 337.406 131.82 334.798C130.412 332.159 127.304 331.162 124.749 331.766C122.194 332.37 120.082 334.224 118.161 336.137C116.24 338.051 114.359 340.116 111.985 341.284C108.062 343.218 103.435 342.412 99.0492 341.838C94.6637 341.274 89.8858 341.093 86.4759 343.964C83.6695 346.331 82.372 350.309 81.1951 354.086C79.5153 359.495 77.7953 364.884 76.1557 370.313C75.1498 373.657 73.2286 378.734 76.3669 381.685C81.869 386.902 91.9981 380.738 95.2471 375.903Z" fill="#04D361"/>
<path d="M78.107 382.068C85.2085 364.401 100.055 350.088 117.738 344.679" stroke="white" stroke-width="0.7781" stroke-miterlimit="10" stroke-linecap="round" stroke-linejoin="round"/>
<path d="M68.3703 366.627C68.1289 363.132 68.6922 359.495 67.6964 356.182C65.916 350.289 59.74 347.217 58.1909 341.244C56.3401 334.103 61.9931 326.81 61.0174 319.437C60.605 316.335 59.0459 313.605 58.0803 310.664C57.1146 307.723 56.8632 304.046 58.7442 301.76C60.7157 299.363 64.2764 299.645 66.6201 301.559C68.9537 303.472 70.3016 306.565 71.398 309.606C72.4843 312.648 73.4499 315.841 75.2907 318.37C78.6503 322.973 84.6955 324.987 86.5262 330.618C88.3971 336.349 84.8565 342.402 84.2328 348.476C83.7601 353.079 84.9772 357.652 86.0635 362.114C87.1499 366.576 88.1054 371.3 87.1096 375.793C85.7919 381.766 81.1046 385.573 76.6184 381.745C72.1825 377.968 68.833 373.194 68.3703 366.627Z" fill="#04D361"/>
<path d="M79.4549 383.196C81.2353 361.872 77.1515 338.736 67.636 320.313" stroke="white" stroke-width="0.9754" stroke-miterlimit="10" stroke-linecap="round" stroke-linejoin="round"/>
<path d="M11.2369 349.574C10.4221 353.069 12.112 357.289 14.7775 359.908C17.4431 362.537 20.9033 363.756 24.1925 364.048L32.8027 366.889L33.1967 366.581C33.1966 366.581 33.1965 366.58 33.1964 366.58C32.036 365.095 30.5123 364.409 28.9301 364.059C27.7882 363.805 26.5708 363.721 25.4307 363.641C25.0206 363.613 24.6206 363.585 24.2376 363.55L24.2367 363.55C21.0341 363.266 17.6928 362.081 15.1286 359.552L15.128 359.552C12.551 357.02 10.959 352.969 11.7237 349.688M11.2369 349.574L11.7236 349.688C11.7237 349.688 11.7237 349.688 11.7237 349.688M11.2369 349.574L11.7238 349.687C11.7238 349.688 11.7238 349.688 11.7237 349.688M11.2369 349.574C11.9108 346.703 14.0332 344.81 16.055 343.087C18.8614 340.69 22.0298 338.182 25.8018 338.716C27.1303 338.902 28.4326 339.458 29.733 340.013C31.1109 340.602 32.4867 341.19 33.889 341.335M11.7237 349.688C12.3555 346.998 14.3454 345.201 16.3792 343.468L16.3797 343.467C19.2171 341.044 22.2161 338.713 25.7318 339.211L25.7326 339.211C26.9939 339.388 28.2421 339.921 29.5656 340.486C29.5947 340.498 29.6238 340.51 29.6529 340.523C30.9802 341.09 32.3869 341.682 33.8375 341.832M33.8375 341.832L33.889 341.335M33.8375 341.832C35.6685 342.022 37.3199 341.5 38.8397 340.721C39.9921 340.13 41.1035 339.371 42.1668 338.645C42.4919 338.423 42.8124 338.204 43.1282 337.994L43.1293 337.993C45.8672 336.162 49.1365 334.877 52.0509 336.607M33.8375 341.832C33.8375 341.832 33.8375 341.832 33.8376 341.832L33.889 341.335M33.889 341.335C36.8851 341.645 39.4203 339.914 41.8664 338.244C42.196 338.019 42.524 337.795 42.8513 337.578C45.6074 335.734 49.1179 334.284 52.3065 336.178M52.0509 336.607C52.0507 336.607 52.0504 336.607 52.0501 336.607L52.3065 336.178M52.0509 336.607C53.3078 337.358 54.3076 338.56 55.1226 340.003C55.9371 341.445 56.5508 343.098 57.0491 344.715L57.0495 344.717C57.1747 345.119 57.2982 345.528 57.4228 345.941C58.2919 348.821 59.2192 351.894 61.2129 354.192M52.0509 336.607C52.051 336.607 52.0511 336.607 52.0512 336.608L52.3065 336.178M52.3065 336.178C55.0223 337.799 56.5211 341.304 57.5269 344.568L61.2129 354.192M61.2129 354.192C62.6271 355.83 64.3644 356.84 66.1136 357.714C66.54 357.927 66.9646 358.131 67.3857 358.333C68.7151 358.972 70.0094 359.594 71.2132 360.43L71.2139 360.43C74.647 362.807 77.1528 366.87 78.6823 371.146C78.7024 371.203 78.7229 371.26 78.7437 371.319C79.3088 372.904 80.128 375.202 80.6014 377.442C80.8468 378.603 80.9947 379.729 80.9716 380.717C80.9483 381.712 80.753 382.516 80.3613 383.083L80.3601 383.084C79.5026 384.335 77.9783 384.49 76.1161 384.029C74.2775 383.574 72.3381 382.566 70.9486 381.828L70.9482 381.827C70.4481 381.562 69.9418 381.285 69.4312 381.006C68.3289 380.403 67.2065 379.789 66.0832 379.258C64.4302 378.475 62.721 377.843 60.9528 377.643L60.9528 377.643C57.7861 377.284 54.8303 378.373 52.1141 379.437L52.0284 379.47C49.3105 380.535 46.6456 381.579 43.7781 381.397C40.9022 381.216 37.7336 379.489 36.3243 376.449L61.2129 354.192ZM61.2129 354.192L61.5906 353.865L61.2122 354.192C61.2124 354.192 61.2127 354.192 61.2129 354.192ZM70.7139 382.269C70.2015 381.997 69.6887 381.717 69.1748 381.436C66.4702 379.956 63.7367 378.461 60.8966 378.139C57.8689 377.797 55.0223 378.834 52.2964 379.902C52.2528 379.919 52.2091 379.936 52.1654 379.953C49.4809 381.005 46.7257 382.085 43.7465 381.896C40.7189 381.705 37.3693 379.892 35.8706 376.659L70.7139 382.269ZM70.7139 382.269C73.48 383.74 78.6803 386.419 80.7725 383.367L70.7139 382.269Z" fill="#04D361" stroke="#04D361"/>
<path d="M80.1792 382.954C63.7735 366.375 44.7525 354.872 24.3535 349.191" stroke="white" stroke-width="0.8986" stroke-miterlimit="10" stroke-linecap="round" stroke-linejoin="round"/>
<path d="M450.53 339.971L442.838 353.804L447.318 335.796C437.858 324.505 424.762 316.245 424.762 316.245C424.762 316.245 408.636 346.56 412.976 365.208C417.316 383.856 428.524 387.416 440.479 383.776C452.435 380.135 460.611 370.672 456.271 352.024C455.305 347.874 453.207 343.799 450.53 339.971Z" fill="#04D361"/>
<path d="M440.352 355.182L440.566 356.102C443.006 366.801 443.37 375.617 441.646 382.428C441.622 382.528 441.593 382.624 441.57 382.724L441.167 382.588L440.782 382.452C442.736 375.069 441.864 365.74 439.739 356.407C439.673 356.106 439.606 355.8 439.531 355.496C438.601 351.554 437.461 347.628 436.22 343.854C436.127 343.561 436.028 343.264 435.929 342.968C434.269 337.996 432.455 333.315 430.775 329.28C430.657 328.994 430.536 328.71 430.415 328.43C427.546 321.614 425.114 316.785 424.568 315.718C424.503 315.587 424.465 315.515 424.457 315.499L424.807 315.261L424.81 315.255L425.163 315.016C425.171 315.033 425.299 315.271 425.523 315.72C426.368 317.392 428.612 321.947 431.2 328.069C431.316 328.346 431.437 328.63 431.555 328.916C432.922 332.189 434.371 335.87 435.749 339.777C436.096 340.758 436.429 341.729 436.746 342.69C436.849 342.985 436.948 343.281 437.042 343.575C438.383 347.654 439.487 351.523 440.352 355.182Z" fill="white"/>
<path d="M431.2 328.069C430.943 328.191 430.682 328.314 430.415 328.43C429.69 328.745 428.952 329.017 428.202 329.245C425.01 330.223 421.666 330.368 418.418 329.671C418.307 329.963 418.196 330.255 418.082 330.553C421.507 331.323 425.041 331.186 428.414 330.155C429.214 329.911 430.002 329.619 430.775 329.28C431.038 329.166 431.299 329.043 431.555 328.916C433.671 327.885 435.638 326.493 437.389 324.786C437.159 324.588 436.935 324.393 436.716 324.201C435.054 325.794 433.195 327.098 431.2 328.069Z" fill="white"/>
<path d="M436.746 342.69C436.476 342.792 436.204 342.884 435.929 342.968C435.847 342.998 435.759 343.025 435.675 343.05C432.215 344.104 428.583 344.185 425.089 343.286C421.595 342.388 418.343 340.536 415.61 337.889C415.513 338.206 415.417 338.523 415.325 338.843C418.151 341.503 421.49 343.355 425.065 344.245C428.641 345.134 432.351 345.037 435.887 343.96C435.999 343.926 436.11 343.892 436.22 343.854C436.498 343.764 436.77 343.672 437.042 343.575C441.231 342.032 444.944 339.142 447.736 335.25C447.546 335.02 447.356 334.791 447.162 334.562C444.456 338.373 440.836 341.198 436.746 342.69Z" fill="white"/>
<path d="M440.352 355.182C440.08 355.294 439.806 355.398 439.531 355.496C439.236 355.6 438.939 355.7 438.641 355.791C433.989 357.201 429.064 356.85 424.602 354.79C420.139 352.73 416.38 349.072 413.888 344.364C413.794 344.787 413.7 345.205 413.615 345.626C416.27 350.272 420.138 353.843 424.668 355.831C429.199 357.819 434.162 358.124 438.853 356.701C439.151 356.611 439.448 356.515 439.739 356.407C440.019 356.312 440.293 356.209 440.566 356.102C446.074 353.885 450.64 349.358 453.339 343.436C453.177 343.125 453.004 342.822 452.83 342.514C450.269 348.432 445.794 352.976 440.352 355.182Z" fill="white"/>
<path d="M410.898 24.955L403.206 38.7879L407.687 20.78C398.227 9.48919 385.13 1.22955 385.13 1.22955C385.13 1.22955 369.004 31.5448 373.344 50.1928C377.685 68.8408 388.892 72.4006 400.848 68.7599C412.803 65.1192 420.98 55.6567 416.64 37.0087C415.674 32.8581 413.575 28.7832 410.898 24.955Z" fill="#04D361"/>
<path d="M400.721 40.1668L400.935 41.0859C403.374 51.7849 403.739 60.601 402.014 67.4124C401.99 67.5122 401.962 67.6086 401.938 67.7084L401.536 67.5726L401.151 67.4366C403.104 60.0535 402.232 50.7242 400.107 41.3916C400.041 41.0901 399.974 40.784 399.899 40.4803C398.969 36.5387 397.829 32.6122 396.589 28.8382C396.495 28.5451 396.396 28.2487 396.297 27.9523C394.638 22.9806 392.824 18.2994 391.143 14.2646C391.026 13.9788 390.904 13.6942 390.784 13.4142C387.915 6.59825 385.483 1.76902 384.937 0.702549C384.872 0.571164 384.834 0.499883 384.826 0.482903L385.175 0.244945L385.178 0.239177L385.531 0C385.54 0.0170032 385.668 0.255796 385.891 0.704225C386.736 2.37655 388.981 6.93149 391.569 13.0533C391.684 13.33 391.806 13.6146 391.923 13.9003C393.29 17.173 394.739 20.8543 396.117 24.7618C396.465 25.7426 396.797 26.7135 397.115 27.6742C397.217 27.9694 397.316 28.2658 397.41 28.5589C398.751 32.6384 399.855 36.5077 400.721 40.1668Z" fill="white"/>
<path d="M391.569 13.0533C391.312 13.1755 391.051 13.2988 390.784 13.4142C390.059 13.729 389.32 14.0011 388.571 14.2294C385.378 15.2068 382.034 15.3524 378.786 14.6555C378.675 14.9476 378.564 15.2396 378.45 15.5374C381.876 16.3069 385.41 16.1708 388.782 15.1395C389.582 14.8956 390.37 14.6036 391.143 14.2646C391.406 14.1503 391.667 14.027 391.923 13.9003C394.04 12.8694 396.007 11.4768 397.757 9.77022C397.528 9.57204 397.304 9.37719 397.084 9.18568C395.422 10.7785 393.564 12.0818 391.569 13.0533Z" fill="white"/>
<path d="M397.115 27.6742C396.844 27.776 396.572 27.8687 396.297 27.9523C396.215 27.9823 396.128 28.009 396.044 28.0344C392.583 29.0883 388.951 29.1693 385.457 28.2707C381.964 27.3721 378.711 25.5204 375.978 22.8735C375.882 23.1904 375.785 23.5074 375.694 23.8276C378.519 26.4875 381.858 28.339 385.434 29.2288C389.01 30.1186 392.719 30.0212 396.256 28.9445C396.367 28.9106 396.479 28.8766 396.589 28.8382C396.866 28.7488 397.139 28.6561 397.41 28.5589C401.6 27.0165 405.312 24.1266 408.104 20.2345C407.914 20.0048 407.724 19.7751 407.531 19.5466C404.824 23.3574 401.204 26.182 397.115 27.6742Z" fill="white"/>
<path d="M400.721 40.1668C400.449 40.2789 400.175 40.3818 399.899 40.4803C399.604 40.5848 399.308 40.6848 399.009 40.7756C394.358 42.1855 389.432 41.8341 384.97 39.774C380.508 37.7139 376.749 34.056 374.256 29.3479C374.163 29.771 374.069 30.1895 373.983 30.6102C376.639 35.2562 380.506 38.8269 385.037 40.8151C389.567 42.8033 394.531 43.108 399.221 41.6857C399.52 41.5949 399.817 41.4995 400.107 41.3916C400.387 41.2965 400.662 41.1935 400.935 41.0859C406.443 38.8698 411.008 34.3423 413.707 28.4204C413.545 28.1091 413.372 27.806 413.199 27.4983C410.638 33.4164 406.162 37.9605 400.721 40.1668Z" fill="white"/>
<path d="M199.37 363.19L185.037 363.265L200.705 357.843C203.896 342.636 202.893 325.569 202.893 325.569C202.893 325.569 171.878 326.436 160.508 340.692C149.137 354.948 152.577 367.658 161.717 377.195C170.857 386.733 182.236 389.487 193.607 375.23C196.138 372.057 198.001 367.835 199.37 363.19Z" fill="#04D361"/>
<path d="M182.68 361.618L182.119 362.321C175.568 370.451 169.28 375.567 163.338 377.589C163.252 377.62 163.165 377.645 163.079 377.676L162.962 377.215L162.854 376.771C169.34 374.661 175.731 368.779 181.447 361.689C181.633 361.463 181.822 361.233 182.005 360.997C184.401 357.971 186.673 354.752 188.779 351.518C188.944 351.27 189.108 351.014 189.273 350.759C192.033 346.474 194.496 342.199 196.555 338.401C196.702 338.133 196.845 337.862 196.986 337.595C200.449 331.15 202.687 326.199 203.176 325.097C203.237 324.964 203.269 324.889 203.277 324.872L203.641 325.079L203.647 325.079L204.014 325.29C204.006 325.307 203.899 325.559 203.69 326.017C202.917 327.734 200.78 332.356 197.676 338.155C197.535 338.416 197.391 338.687 197.245 338.955C195.576 342.039 193.652 345.423 191.522 348.861C190.989 349.726 190.454 350.571 189.919 351.395C189.758 351.654 189.593 351.909 189.428 352.158C187.153 355.654 184.903 358.807 182.68 361.618Z" fill="white"/>
<path d="M197.676 338.155C197.447 337.974 197.215 337.79 196.986 337.595C196.363 337.067 195.763 336.504 195.19 335.906C192.746 333.362 190.831 330.223 189.588 326.72C189.313 326.771 189.039 326.822 188.758 326.874C190.044 330.586 192.054 333.914 194.635 336.602C195.247 337.24 195.888 337.84 196.555 338.401C196.781 338.592 197.013 338.777 197.245 338.955C199.147 340.434 201.234 341.574 203.436 342.336C203.458 342.008 203.48 341.687 203.502 341.373C201.432 340.634 199.469 339.55 197.676 338.155Z" fill="white"/>
<path d="M189.919 351.395C189.698 351.19 189.483 350.978 189.273 350.759C189.206 350.696 189.139 350.626 189.075 350.56C186.43 347.799 184.407 344.347 183.179 340.499C181.952 336.651 181.556 332.521 182.026 328.46C181.74 328.539 181.455 328.617 181.17 328.702C180.741 332.859 181.184 337.073 182.462 340.995C183.74 344.917 185.817 348.434 188.521 351.255C188.606 351.344 188.691 351.433 188.779 351.518C188.994 351.737 189.21 351.949 189.428 352.158C192.827 355.356 196.96 357.367 201.331 357.95C201.398 357.643 201.464 357.336 201.527 357.026C197.261 356.481 193.227 354.524 189.919 351.395Z" fill="white"/>
<path d="M182.68 361.618C182.45 361.417 182.226 361.209 182.005 360.997C181.768 360.769 181.535 360.538 181.307 360.3C177.755 356.586 175.352 351.656 174.455 346.248C173.558 340.84 174.217 335.246 176.333 330.302C175.971 330.441 175.612 330.577 175.257 330.722C173.275 335.788 172.739 341.44 173.725 346.875C174.712 352.31 177.17 357.251 180.752 360.996C180.98 361.234 181.211 361.469 181.447 361.689C181.668 361.908 181.892 362.116 182.119 362.321C186.726 366.423 192.524 368.37 198.339 367.766C198.48 367.442 198.61 367.112 198.742 366.778C193.005 367.513 187.243 365.662 182.68 361.618Z" fill="white"/>
<path d="M151.787 376.053L160.023 376.053L163.94 339.72L151.786 339.721L151.787 376.053Z" fill="#FFB6B6"/>
<path d="M149.687 372.978L165.905 372.977H165.905C168.647 372.977 171.275 374.223 173.214 376.44C175.152 378.657 176.241 381.663 176.241 384.799V385.183L149.687 385.184L149.687 372.978Z" fill="#2F2E41"/>
<path d="M86.6304 376.053L94.8657 376.053L98.7832 339.72L86.6291 339.721L86.6304 376.053Z" fill="#FFB6B6"/>
<path d="M84.53 372.978L100.748 372.977H100.749C103.49 372.977 106.118 374.223 108.057 376.44C109.995 378.657 111.084 381.663 111.084 384.799V385.183L84.5304 385.184L84.53 372.978Z" fill="#2F2E41"/>
<path d="M100.597 226.811L95.0464 232.654L88.7907 303.246L84.5797 359.454L97.3054 361.417L128.172 265.377L150.758 360.962L165.984 361.417L155.878 236.646L100.597 226.811Z" fill="#2F2E41"/>
<path d="M127.419 122.43C136.151 122.43 143.229 114.334 143.229 104.347C143.229 94.3593 136.151 86.263 127.419 86.263C118.688 86.263 111.609 94.3593 111.609 104.347C111.609 114.334 118.688 122.43 127.419 122.43Z" fill="#FFB9B9"/>
<path d="M119.328 95.9499C119.328 95.9499 117.443 100.616 124.983 98.7493C124.983 98.7493 127.81 100.616 127.81 97.8162C127.81 97.8162 131.58 102.482 132.522 99.6825C133.465 96.883 135.349 100.616 135.349 100.616L137.234 95.9499L139.119 98.7494H145.716C145.716 98.7494 147.601 80.0865 124.983 81.9528C102.365 83.8191 113.492 113.388 113.492 113.388C113.492 113.388 113.674 108.081 115.559 110.88C117.443 113.68 119.328 95.9499 119.328 95.9499Z" fill="#2F2E41"/>
<path d="M139.465 128.332L117.172 126.736L97.3053 132.764L100.317 191.32L95.0467 232.654C95.0467 232.654 123.96 252.871 156.78 236.96L153.663 227.58C153.663 227.58 153.556 213.224 150.922 210.413C148.289 207.603 148.499 184.431 148.499 184.431L158.286 141.375L139.465 128.332Z" fill="#04D361"/>
<path d="M102.612 134.612L97.3053 132.764C97.3053 132.764 89.0403 133.079 84.7429 143.834C80.4454 154.588 77.7585 169.955 77.7585 169.955L105.053 171.084L102.612 134.612Z" fill="#04D361"/>
<path d="M165.966 237.265L165.082 173.797L153.29 175.82L155.895 235.952C154.823 236.959 154.033 238.304 153.626 239.821C153.218 241.337 153.21 242.957 153.603 244.479C153.995 246 154.771 247.356 155.833 248.377C156.895 249.397 158.196 250.037 159.574 250.217C160.952 250.396 162.346 250.108 163.582 249.387C164.817 248.666 165.84 247.545 166.521 246.163C167.203 244.781 167.514 243.201 167.415 241.618C167.316 240.036 166.812 238.522 165.966 237.265Z" fill="#FFB9B9"/>
<path d="M151.648 146.905L158.286 141.375C158.286 141.375 171.041 152.786 171.084 177.889L153.29 182.826L143.229 166.274L151.648 146.905Z" fill="#04D361"/>
<path d="M509.645 376.017L517.881 376.017L521.798 339.684L509.644 339.684L509.645 376.017Z" fill="#9E616A"/>
<path d="M507.545 372.942L523.763 372.941H523.764C526.505 372.941 529.133 374.187 531.072 376.403C533.01 378.62 534.099 381.627 534.099 384.763V385.147L507.545 385.148L507.545 372.942Z" fill="#2F2E41"/>
<path d="M460.903 368.007L468.754 370.848L482.07 337.559L470.482 333.366L460.903 368.007Z" fill="#9E616A"/>
<path d="M459.711 364.35L475.174 369.944L475.174 369.945C477.788 370.891 479.966 372.985 481.229 375.767C482.492 378.55 482.738 381.792 481.911 384.782L481.81 385.148L456.492 375.988L459.711 364.35Z" fill="#2F2E41"/>
<path d="M479.445 210.081L474.875 224.823L474.746 304.413L461.786 358.905L477.694 363.983L495.267 312.602L500.904 267.472L508.332 312.865L507.309 366.817H524.001L525.261 283.676C525.614 260.326 522.043 237.116 514.739 215.308L479.445 210.081Z" fill="#2F2E41"/>
<path d="M474.002 150.362H500.982L512.255 163.257L515.623 216.557L474.875 224.057L461.786 173.202L468.914 151.588L474.002 150.362Z" fill="#6842C2"/>
<path d="M464.3 173.71L422.761 155.834L421.679 148.444L447.877 123.089L456.596 130.569L440.792 150.362L468.914 151.588L464.3 173.71Z" fill="#6842C2"/>
<path d="M452.915 133.459C456.625 133.459 459.632 130.019 459.632 125.776C459.632 121.533 456.625 118.093 452.915 118.093C449.205 118.093 446.198 121.533 446.198 125.776C446.198 130.019 449.205 133.459 452.915 133.459Z" fill="#9E616A"/>
<path d="M468.493 135.455L471.528 119.8C472.611 114.24 475.579 109.4 479.78 106.342C483.981 103.285 489.071 102.26 493.933 103.493C498.794 104.726 503.028 108.116 505.706 112.919C508.383 117.721 509.283 123.543 508.21 129.104L505.174 144.76C505.029 145.507 504.63 146.157 504.066 146.568C503.501 146.98 502.818 147.118 502.164 146.953L470.41 138.898C469.757 138.732 469.189 138.276 468.829 137.63C468.47 136.985 468.349 136.203 468.493 135.455Z" fill="#2F2E41"/>
<path d="M485.571 141.979C493.178 141.979 499.345 134.925 499.345 126.225C499.345 117.524 493.178 110.47 485.571 110.47C477.964 110.47 471.798 117.524 471.798 126.225C471.798 134.925 477.964 141.979 485.571 141.979Z" fill="#9E616A"/>
<path d="M466.947 119.952C467.804 115.553 470.152 111.723 473.475 109.302C476.798 106.881 480.825 106.066 484.672 107.037L487.41 107.731C491.255 108.712 494.604 111.397 496.721 115.198C498.837 118.999 499.549 123.606 498.701 128.006L498.64 128.319L492.855 126.852L492.107 120.032L490.487 126.251L487.497 125.493L487.12 122.052L486.303 125.19L466.886 120.265L466.947 119.952Z" fill="#2F2E41"/>
<path d="M480.854 143.394C480.664 142.905 480.599 142.364 480.666 141.834C480.733 141.304 480.929 140.806 481.233 140.398C485.357 134.823 491.68 124.191 487.683 115.632L487.396 115.017L503.047 118.987L497.836 145.864L483.061 145.127C482.912 145.12 482.763 145.098 482.617 145.061C482.229 144.962 481.867 144.76 481.56 144.47C481.254 144.181 481.012 143.812 480.854 143.394Z" fill="#2F2E41"/>
<path d="M326.527 159.598H113.38C111.762 159.598 110.16 159.963 108.665 160.671C107.17 161.379 105.812 162.417 104.668 163.726C103.524 165.035 102.616 166.588 101.997 168.298C101.378 170.008 101.059 171.841 101.059 173.691V232.326C101.059 234.177 101.378 236.01 101.997 237.72C102.616 239.43 103.524 240.983 104.668 242.292C105.812 243.601 107.17 244.639 108.665 245.347C110.16 246.055 111.762 246.42 113.38 246.42H116.509V257.013C116.509 257.656 116.676 258.284 116.988 258.819C117.3 259.353 117.744 259.77 118.263 260.016C118.782 260.262 119.354 260.326 119.905 260.201C120.456 260.075 120.962 259.766 121.36 259.311L132.63 246.42H326.527C328.145 246.42 329.748 246.055 331.243 245.347C332.737 244.639 334.096 243.601 335.24 242.292C336.384 240.983 337.291 239.43 337.911 237.72C338.53 236.01 338.848 234.177 338.848 232.326V173.691C338.848 171.841 338.53 170.008 337.911 168.298C337.291 166.588 336.384 165.035 335.24 163.726C334.096 162.417 332.737 161.379 331.242 160.671C329.748 159.963 328.145 159.598 326.527 159.598Z" fill="#E6E6E6"/>
<path d="M275.265 239.12H113.381C111.806 239.118 110.296 238.402 109.182 237.128C108.069 235.854 107.442 234.127 107.441 232.326V173.691C107.442 171.89 108.069 170.163 109.182 168.89C110.296 167.616 111.805 166.9 113.38 166.897H326.527C328.102 166.899 329.612 167.616 330.725 168.89C331.839 170.163 332.465 171.89 332.467 173.692C332.45 191.038 326.418 207.669 315.694 219.935C304.97 232.201 290.431 239.101 275.265 239.12Z" fill="white"/>
<path d="M265.183 179.575H175.173C172.947 179.575 171.142 181.639 171.142 184.185V184.185C171.142 186.731 172.947 188.795 175.173 188.795H265.183C267.409 188.795 269.213 186.731 269.213 184.185C269.213 181.639 267.409 179.575 265.183 179.575Z" fill="#6C63FF"/>
<path d="M284.327 198.015H156.029C153.803 198.015 151.998 200.079 151.998 202.625V202.625C151.998 205.171 153.803 207.235 156.029 207.235H284.327C286.553 207.235 288.358 205.171 288.358 202.625C288.358 200.079 286.553 198.015 284.327 198.015Z" fill="#E6E6E6"/>
<path d="M284.327 216.455H156.029C153.803 216.455 151.998 218.519 151.998 221.065V221.065C151.998 223.611 153.803 225.675 156.029 225.675H284.327C286.553 225.675 288.358 223.611 288.358 221.065C288.358 218.519 286.553 216.455 284.327 216.455Z" fill="#E6E6E6"/>
<path d="M630.198 200.425H476.057C474.887 200.425 473.729 200.688 472.648 201.2C471.567 201.713 470.584 202.463 469.757 203.41C468.93 204.356 468.273 205.48 467.826 206.716C467.378 207.953 467.147 209.278 467.147 210.616V253.019C467.147 254.357 467.378 255.683 467.826 256.919C468.273 258.156 468.93 259.279 469.757 260.226C470.584 261.172 471.567 261.923 472.648 262.435C473.729 262.947 474.887 263.211 476.057 263.211H478.32V270.871C478.32 271.336 478.44 271.791 478.666 272.177C478.892 272.564 479.213 272.865 479.588 273.043C479.964 273.221 480.377 273.267 480.776 273.177C481.174 273.086 481.54 272.862 481.828 272.533L489.978 263.211H630.198C631.368 263.211 632.527 262.947 633.608 262.435C634.689 261.923 635.671 261.172 636.498 260.226C637.326 259.279 637.982 258.156 638.43 256.919C638.877 255.683 639.108 254.357 639.108 253.019V210.616C639.108 209.278 638.877 207.953 638.43 206.716C637.982 205.48 637.326 204.356 636.498 203.41C635.671 202.463 634.689 201.713 633.608 201.2C632.527 200.688 631.368 200.425 630.198 200.425Z" fill="#E6E6E6"/>
<path d="M630.198 258.039H476.057C474.894 258.037 473.778 257.508 472.956 256.567C472.133 255.626 471.67 254.35 471.669 253.019V210.616C471.67 209.285 472.133 208.009 472.956 207.068C473.778 206.127 474.894 205.598 476.057 205.596H593.127C604.119 205.611 614.657 210.612 622.43 219.502C630.202 228.393 634.574 240.446 634.586 253.019C634.585 254.35 634.122 255.626 633.299 256.567C632.477 257.508 631.361 258.037 630.198 258.039Z" fill="white"/>
<path d="M585.836 214.871H520.743C519.134 214.871 517.829 216.363 517.829 218.205C517.829 220.046 519.134 221.538 520.743 221.538H585.836C587.445 221.538 588.75 220.046 588.75 218.205C588.75 216.363 587.445 214.871 585.836 214.871Z" fill="#6C63FF"/>
<path d="M599.68 228.206H506.899C505.289 228.206 503.984 229.699 503.984 231.54C503.984 233.381 505.289 234.874 506.899 234.874H599.68C601.29 234.874 602.595 233.381 602.595 231.54C602.595 229.699 601.29 228.206 599.68 228.206Z" fill="#E6E6E6"/>
<path d="M599.68 241.541H506.899C505.289 241.541 503.984 243.034 503.984 244.875C503.984 246.716 505.289 248.209 506.899 248.209H599.68C601.29 248.209 602.595 246.716 602.595 244.875C602.595 243.034 601.29 241.541 599.68 241.541Z" fill="#E6E6E6"/>
<path d="M301.41 51.3683H455.55C456.72 51.3683 457.879 51.632 458.96 52.1441C460.041 52.6563 461.023 53.407 461.851 54.3534C462.678 55.2998 463.334 56.4233 463.782 57.6598C464.23 58.8963 464.461 60.2216 464.461 61.56V103.963C464.461 105.301 464.23 106.626 463.782 107.863C463.335 109.099 462.678 110.223 461.851 111.169C461.023 112.116 460.041 112.867 458.96 113.379C457.879 113.891 456.72 114.154 455.55 114.154H453.288V121.815C453.288 122.28 453.167 122.735 452.942 123.121C452.716 123.508 452.395 123.809 452.019 123.987C451.644 124.165 451.231 124.211 450.832 124.12C450.434 124.03 450.067 123.806 449.78 123.477L441.63 114.154H301.41C300.24 114.154 299.081 113.891 298 113.379C296.919 112.867 295.937 112.116 295.11 111.169C294.282 110.223 293.626 109.1 293.178 107.863C292.73 106.626 292.5 105.301 292.5 103.963V61.56C292.5 60.2216 292.73 58.8963 293.178 57.6598C293.626 56.4233 294.282 55.2998 295.11 54.3534C295.937 53.407 296.919 52.6563 298 52.1441C299.081 51.632 300.24 51.3683 301.41 51.3683Z" fill="#E6E6E6"/>
<path d="M455.55 108.982H338.481C327.489 108.968 316.951 103.967 309.179 95.0771C301.406 86.1869 297.034 74.1331 297.021 61.5603C297.023 60.2295 297.485 58.9535 298.308 58.0124C299.131 57.0713 300.246 56.5419 301.41 56.5403H455.55C456.714 56.5418 457.829 57.0711 458.652 58.0122C459.475 58.9532 459.937 60.2291 459.939 61.56V103.963C459.937 105.293 459.475 106.569 458.652 107.51C457.829 108.451 456.714 108.981 455.55 108.982Z" fill="white"/>
<path d="M345.772 72.4823L410.864 72.4823C412.474 72.4823 413.779 70.9897 413.779 69.1485C413.779 67.3073 412.474 65.8147 410.864 65.8147L345.772 65.8147C344.162 65.8147 342.857 67.3073 342.857 69.1485C342.857 70.9897 344.162 72.4823 345.772 72.4823Z" fill="#6C63FF"/>
<path d="M331.928 85.8174L424.709 85.8174C426.318 85.8174 427.623 84.3248 427.623 82.4836C427.623 80.6424 426.318 79.1498 424.709 79.1498L331.928 79.1498C330.318 79.1498 329.013 80.6424 329.013 82.4836C329.013 84.3248 330.318 85.8174 331.928 85.8174Z" fill="#E6E6E6"/>
<path d="M331.928 99.1525L424.709 99.1525C426.318 99.1525 427.623 97.6599 427.623 95.8187C427.623 93.9775 426.318 92.4849 424.709 92.4849L331.928 92.4849C330.318 92.4849 329.013 93.9775 329.013 95.8187C329.013 97.6599 330.318 99.1525 331.928 99.1525Z" fill="#E6E6E6"/>
<path d="M123.771 158.43C123.771 156.29 123.028 154.238 121.706 152.725C120.383 151.213 118.589 150.363 116.718 150.363C114.848 150.363 113.054 151.213 111.731 152.725C110.408 154.238 109.665 156.29 109.665 158.43C109.665 158.509 109.673 158.585 109.675 158.663L97.3054 172.813L98.246 170.339L84.1399 169.571L82.0821 186.606C81.9018 188.179 82.1528 189.777 82.8004 191.179C83.4481 192.582 84.4604 193.72 85.6976 194.436C86.9349 195.152 88.336 195.412 89.7076 195.178C91.0792 194.944 92.3535 194.23 93.3547 193.132L117.738 166.404C119.414 166.125 120.945 165.166 122.053 163.701C123.16 162.237 123.771 160.366 123.771 158.43Z" fill="#FFB9B9"/>
<path d="M499.909 150.685L543.849 157.831L546.305 164.777L525.54 196.027L515.61 190.888L527.284 167.645L499.599 173.426L499.909 150.685Z" fill="#6842C2"/>
<path d="M519.415 204.914C523.125 204.914 526.132 201.474 526.132 197.231C526.132 192.987 523.125 189.547 519.415 189.547C515.705 189.547 512.698 192.987 512.698 197.231C512.698 201.474 515.705 204.914 519.415 204.914Z" fill="#9E616A"/>
<path d="M258.097 367.019C258.097 367.789 257.474 368.412 256.706 368.412C255.939 368.412 255.316 367.789 255.316 367.019C255.316 366.248 255.939 365.625 256.706 365.625C257.474 365.625 258.097 366.248 258.097 367.019Z" fill="#9871F5" stroke="#9871F5"/>
<path d="M271.304 367.019C271.304 367.789 270.681 368.412 269.913 368.412C269.146 368.412 268.523 367.789 268.523 367.019C268.523 366.248 269.146 365.625 269.913 365.625C270.681 365.625 271.304 366.248 271.304 367.019Z" fill="#9871F5" stroke="#9871F5"/>
<path d="M284.501 367.019C284.501 367.789 283.878 368.412 283.11 368.412C282.343 368.412 281.72 367.789 281.72 367.019C281.72 366.248 282.343 365.625 283.11 365.625C283.878 365.625 284.501 366.248 284.501 367.019Z" fill="#9871F5" stroke="#9871F5"/>
<path d="M297.708 367.019C297.708 367.789 297.085 368.412 296.317 368.412C295.55 368.412 294.927 367.789 294.927 367.019C294.927 366.248 295.55 365.625 296.317 365.625C297.085 365.625 297.708 366.248 297.708 367.019Z" fill="#9871F5" stroke="#9871F5"/>
<path d="M310.905 367.019C310.905 367.789 310.282 368.412 309.514 368.412C308.747 368.412 308.124 367.789 308.124 367.019C308.124 366.248 308.747 365.625 309.514 365.625C310.282 365.625 310.905 366.248 310.905 367.019Z" fill="#9871F5" stroke="#9871F5"/>
<path d="M258.097 380.244C258.097 381.014 257.474 381.637 256.706 381.637C255.939 381.637 255.316 381.014 255.316 380.244C255.316 379.474 255.939 378.85 256.706 378.85C257.474 378.85 258.097 379.474 258.097 380.244Z" fill="#9871F5" stroke="#9871F5"/>
<path d="M271.304 380.244C271.304 381.014 270.681 381.637 269.913 381.637C269.146 381.637 268.523 381.014 268.523 380.244C268.523 379.474 269.146 378.85 269.913 378.85C270.681 378.85 271.304 379.474 271.304 380.244Z" fill="#9871F5" stroke="#9871F5"/>
<path d="M284.501 380.244C284.501 381.014 283.878 381.637 283.11 381.637C282.343 381.637 281.72 381.014 281.72 380.244C281.72 379.474 282.343 378.85 283.11 378.85C283.878 378.85 284.501 379.474 284.501 380.244Z" fill="#9871F5" stroke="#9871F5"/>
<path d="M297.708 380.244C297.708 381.014 297.085 381.637 296.317 381.637C295.55 381.637 294.927 381.014 294.927 380.244C294.927 379.474 295.55 378.85 296.317 378.85C297.085 378.85 297.708 379.474 297.708 380.244Z" fill="#9871F5" stroke="#9871F5"/>
<path d="M310.905 380.244C310.905 381.014 310.282 381.637 309.514 381.637C308.747 381.637 308.124 381.014 308.124 380.244C308.124 379.474 308.747 378.85 309.514 378.85C310.282 378.85 310.905 379.474 310.905 380.244Z" fill="#9871F5" stroke="#9871F5"/>
<path d="M3.28142 69.1823C3.28142 69.9524 2.65813 70.5756 1.89071 70.5756C1.12328 70.5756 0.5 69.9524 0.5 69.1823C0.5 68.4121 1.12329 67.789 1.89071 67.789C2.65813 67.789 3.28142 68.4121 3.28142 69.1823Z" fill="#9871F5" stroke="#9871F5"/>
<path d="M16.4885 69.1823C16.4885 69.9524 15.8652 70.5756 15.0978 70.5756C14.3304 70.5756 13.7071 69.9524 13.7071 69.1823C13.7071 68.4121 14.3304 67.789 15.0978 67.789C15.8652 67.789 16.4885 68.4121 16.4885 69.1823Z" fill="#9871F5" stroke="#9871F5"/>
<path d="M29.6856 69.1823C29.6856 69.9524 29.0623 70.5756 28.2949 70.5756C27.5275 70.5756 26.9042 69.9524 26.9042 69.1823C26.9042 68.4121 27.5275 67.789 28.2949 67.789C29.0623 67.789 29.6856 68.4121 29.6856 69.1823Z" fill="#9871F5" stroke="#9871F5"/>
<path d="M42.8926 69.1823C42.8926 69.9524 42.2694 70.5756 41.5019 70.5756C40.7345 70.5756 40.1112 69.9524 40.1112 69.1823C40.1112 68.4121 40.7345 67.789 41.5019 67.789C42.2693 67.789 42.8926 68.4121 42.8926 69.1823Z" fill="#9871F5" stroke="#9871F5"/>
<path d="M56.0896 69.1823C56.0896 69.9524 55.4663 70.5756 54.6989 70.5756C53.9314 70.5756 53.3082 69.9524 53.3082 69.1823C53.3082 68.4121 53.9314 67.789 54.6989 67.789C55.4663 67.789 56.0896 68.4121 56.0896 69.1823Z" fill="#9871F5" stroke="#9871F5"/>
<path d="M69.2965 69.1823C69.2965 69.9524 68.6733 70.5756 67.9058 70.5756C67.1384 70.5756 66.5151 69.9524 66.5151 69.1823C66.5151 68.4121 67.1384 67.789 67.9058 67.789C68.6732 67.789 69.2965 68.4121 69.2965 69.1823Z" fill="#9871F5" stroke="#9871F5"/>
<path d="M3.28142 82.3973C3.28142 83.1675 2.65813 83.7906 1.89071 83.7906C1.12329 83.7906 0.5 83.1675 0.5 82.3973C0.5 81.6272 1.12329 81.004 1.89071 81.004C2.65813 81.004 3.28142 81.6272 3.28142 82.3973Z" fill="#9871F5" stroke="#9871F5"/>
<path d="M16.4886 82.3973C16.4886 83.1675 15.8653 83.7906 15.0978 83.7906C14.3304 83.7906 13.7071 83.1675 13.7071 82.3973C13.7071 81.6272 14.3304 81.004 15.0978 81.004C15.8653 81.004 16.4886 81.6272 16.4886 82.3973Z" fill="#9871F5" stroke="#9871F5"/>
<path d="M29.6856 82.3973C29.6856 83.1675 29.0623 83.7906 28.2949 83.7906C27.5275 83.7906 26.9042 83.1675 26.9042 82.3973C26.9042 81.6272 27.5275 81.004 28.2949 81.004C29.0623 81.004 29.6856 81.6272 29.6856 82.3973Z" fill="#9871F5" stroke="#9871F5"/>
<path d="M42.8926 82.3973C42.8926 83.1675 42.2693 83.7906 41.5019 83.7906C40.7345 83.7906 40.1112 83.1675 40.1112 82.3973C40.1112 81.6272 40.7345 81.004 41.5019 81.004C42.2693 81.004 42.8926 81.6272 42.8926 82.3973Z" fill="#9871F5" stroke="#9871F5"/>
<path d="M56.0896 82.3973C56.0896 83.1675 55.4663 83.7906 54.6989 83.7906C53.9315 83.7906 53.3082 83.1675 53.3082 82.3973C53.3082 81.6272 53.9315 81.004 54.6989 81.004C55.4663 81.004 56.0896 81.6272 56.0896 82.3973Z" fill="#9871F5" stroke="#9871F5"/>
<path d="M69.2965 82.3973C69.2965 83.1675 68.6732 83.7906 67.9058 83.7906C67.1384 83.7906 66.5151 83.1675 66.5151 82.3973C66.5151 81.6272 67.1384 81.004 67.9058 81.004C68.6732 81.004 69.2965 81.6272 69.2965 82.3973Z" fill="#9871F5" stroke="#9871F5"/>
<path d="M3.28142 95.6225C3.28142 96.3926 2.65813 97.0158 1.89071 97.0158C1.12328 97.0158 0.5 96.3926 0.5 95.6225C0.5 94.8523 1.12329 94.2292 1.89071 94.2292C2.65813 94.2292 3.28142 94.8523 3.28142 95.6225Z" fill="#9871F5" stroke="#9871F5"/>
<path d="M16.4886 95.6225C16.4886 96.3926 15.8653 97.0158 15.0978 97.0158C14.3304 97.0158 13.7071 96.3926 13.7071 95.6225C13.7071 94.8523 14.3304 94.2292 15.0978 94.2292C15.8653 94.2292 16.4886 94.8523 16.4886 95.6225Z" fill="#9871F5" stroke="#9871F5"/>
<path d="M29.6856 95.6225C29.6856 96.3926 29.0623 97.0158 28.2949 97.0158C27.5275 97.0158 26.9042 96.3926 26.9042 95.6225C26.9042 94.8523 27.5275 94.2292 28.2949 94.2292C29.0623 94.2292 29.6856 94.8523 29.6856 95.6225Z" fill="#9871F5" stroke="#9871F5"/>
<path d="M42.8926 95.6225C42.8926 96.3926 42.2693 97.0158 41.5019 97.0158C40.7345 97.0158 40.1112 96.3926 40.1112 95.6225C40.1112 94.8523 40.7345 94.2292 41.5019 94.2292C42.2693 94.2292 42.8926 94.8523 42.8926 95.6225Z" fill="#9871F5" stroke="#9871F5"/>
<path d="M56.0896 95.6225C56.0896 96.3926 55.4663 97.0158 54.6989 97.0158C53.9314 97.0158 53.3082 96.3926 53.3082 95.6225C53.3082 94.8523 53.9315 94.2292 54.6989 94.2292C55.4663 94.2292 56.0896 94.8523 56.0896 95.6225Z" fill="#9871F5" stroke="#9871F5"/>
<path d="M69.2965 95.6225C69.2965 96.3926 68.6732 97.0158 67.9058 97.0158C67.1384 97.0158 66.5151 96.3926 66.5151 95.6225C66.5151 94.8523 67.1384 94.2292 67.9058 94.2292C68.6732 94.2292 69.2965 94.8523 69.2965 95.6225Z" fill="#9871F5" stroke="#9871F5"/>
<path d="M3.28142 108.838C3.28142 109.608 2.65813 110.231 1.89071 110.231C1.12329 110.231 0.5 109.608 0.5 108.838C0.5 108.067 1.12329 107.444 1.89071 107.444C2.65813 107.444 3.28142 108.067 3.28142 108.838Z" fill="#9871F5" stroke="#9871F5"/>
<path d="M16.4886 108.838C16.4886 109.608 15.8653 110.231 15.0978 110.231C14.3304 110.231 13.7071 109.608 13.7071 108.838C13.7071 108.067 14.3304 107.444 15.0978 107.444C15.8653 107.444 16.4886 108.067 16.4886 108.838Z" fill="#9871F5" stroke="#9871F5"/>
<path d="M29.6856 108.838C29.6856 109.608 29.0623 110.231 28.2949 110.231C27.5275 110.231 26.9042 109.608 26.9042 108.838C26.9042 108.067 27.5275 107.444 28.2949 107.444C29.0623 107.444 29.6856 108.067 29.6856 108.838Z" fill="#9871F5" stroke="#9871F5"/>
<path d="M42.8926 108.838C42.8926 109.608 42.2693 110.231 41.5019 110.231C40.7345 110.231 40.1112 109.608 40.1112 108.838C40.1112 108.067 40.7345 107.444 41.5019 107.444C42.2693 107.444 42.8926 108.067 42.8926 108.838Z" fill="#9871F5" stroke="#9871F5"/>
<path d="M56.0896 108.838C56.0896 109.608 55.4663 110.231 54.6989 110.231C53.9315 110.231 53.3082 109.608 53.3082 108.838C53.3082 108.067 53.9315 107.444 54.6989 107.444C55.4663 107.444 56.0896 108.067 56.0896 108.838Z" fill="#9871F5" stroke="#9871F5"/>
<path d="M69.2965 108.838C69.2965 109.608 68.6732 110.231 67.9058 110.231C67.1384 110.231 66.5151 109.608 66.5151 108.838C66.5151 108.067 67.1384 107.444 67.9058 107.444C68.6732 107.444 69.2965 108.067 69.2965 108.838Z" fill="#9871F5" stroke="#9871F5"/>
<path d="M228.939 77.2169H161.105C156.565 77.2169 152.878 73.4957 152.878 68.9128V48.0156C152.878 43.4327 156.565 39.7115 161.105 39.7115H228.939C233.479 39.7115 237.166 43.4327 237.166 48.0156V68.9128C237.166 73.5059 233.479 77.2169 228.939 77.2169Z" fill="#6842C2"/>
<path d="M155.537 74.568V83.8354L165.465 73.9076L155.537 74.568Z" fill="#6842C2"/>
<path d="M228.547 48.8573H209.827" stroke="white" stroke-width="2.2165" stroke-miterlimit="10" stroke-linecap="round" stroke-linejoin="round"/>
<path d="M203.156 48.8573H160.155" stroke="white" stroke-width="2.2165" stroke-miterlimit="10" stroke-linecap="round" stroke-linejoin="round"/>
<path d="M228.547 58.3456H193.646" stroke="white" stroke-width="2.2165" stroke-miterlimit="10" stroke-linecap="round" stroke-linejoin="round"/>
<path d="M188.306 58.3456H177.976" stroke="white" stroke-width="2.2165" stroke-miterlimit="10" stroke-linecap="round" stroke-linejoin="round"/>
<path d="M172.435 58.3456H160.155" stroke="white" stroke-width="2.2165" stroke-miterlimit="10" stroke-linecap="round" stroke-linejoin="round"/>
<path d="M228.547 67.8238H220.647" stroke="white" stroke-width="2.2165" stroke-miterlimit="10" stroke-linecap="round" stroke-linejoin="round"/>
<path d="M215.807 67.8238H187.306" stroke="white" stroke-width="2.2165" stroke-miterlimit="10" stroke-linecap="round" stroke-linejoin="round"/>
<path d="M394.319 242.394C394.319 245.274 391.985 247.621 389.098 247.621C386.222 247.621 383.878 245.284 383.878 242.394C383.878 239.513 386.212 237.166 389.098 237.166C391.985 237.176 394.319 239.513 394.319 242.394Z" stroke="#04D361" stroke-width="2" stroke-miterlimit="10" stroke-linecap="round" stroke-linejoin="round"/>
<path d="M323.798 282.819V291.421" stroke="#04D361" stroke-width="2" stroke-miterlimit="10" stroke-linecap="round" stroke-linejoin="round"/>
<path d="M328.104 287.119H319.504" stroke="#04D361" stroke-width="2" stroke-miterlimit="10" stroke-linecap="round" stroke-linejoin="round"/>
<path d="M508.41 56.258V64.8599" stroke="#04D361" stroke-width="2" stroke-miterlimit="10" stroke-linecap="round" stroke-linejoin="round"/>
<path d="M512.716 60.5582H504.116" stroke="#04D361" stroke-width="2" stroke-miterlimit="10" stroke-linecap="round" stroke-linejoin="round"/>
<path d="M245.404 103.957C245.404 107.15 242.819 109.739 239.63 109.739C236.442 109.739 233.857 107.15 233.857 103.957C233.857 100.764 236.442 98.1757 239.63 98.1757C242.809 98.1757 245.404 100.764 245.404 103.957Z" stroke="#04D361" stroke-width="2" stroke-miterlimit="10" stroke-linecap="round" stroke-linejoin="round"/>
<path d="M243.805 107.946L247.878 112.035" stroke="#04D361" stroke-width="2" stroke-miterlimit="10" stroke-linecap="round" stroke-linejoin="round"/>
</svg>
