<svg width="313" height="147" viewBox="0 0 313 147" fill="none" xmlns="http://www.w3.org/2000/svg">
<path d="M2.46484 71.6797C2.26953 71.7448 2.13932 71.6797 2.07422 71.4844C2.00911 71.2891 1.97656 71.0938 1.97656 70.8984C2.04167 70.7031 2.13932 70.5404 2.26953 70.4102C2.46484 70.2799 2.69271 70.2799 2.95312 70.4102C2.10677 69.3685 1.55339 68.4245 1.29297 67.5781C1.09766 66.7318 0.674479 65.6901 0.0234375 64.4531C0.21875 64.2578 0.348958 63.9974 0.414062 63.6719C0.479167 63.2812 0.576823 62.9232 0.707031 62.5977C0.772135 62.2721 0.869792 62.0443 1 61.9141C1.19531 61.7188 1.42318 61.7513 1.68359 62.0117C1.55339 61.2956 1.55339 60.7096 1.68359 60.2539C1.8138 59.7982 1.94401 59.375 2.07422 58.9844C2.26953 58.5938 2.39974 58.2031 2.46484 57.8125C2.52995 57.4219 2.43229 56.9661 2.17188 56.4453C3.40885 54.7526 4.22266 52.9297 4.61328 50.9766C5.00391 48.9583 5.23177 47.1354 5.29688 45.5078C5.88281 44.9219 6.37109 44.1406 6.76172 43.1641C7.21745 42.1875 7.54297 41.1784 7.73828 40.1367C7.93359 39.0951 8.03125 38.0859 8.03125 37.1094C8.03125 36.0677 7.90104 35.2539 7.64062 34.668C7.70573 34.4076 7.83594 34.2773 8.03125 34.2773C8.29167 34.2122 8.58464 34.2122 8.91016 34.2773C9.36589 31.6732 9.65885 28.776 9.78906 25.5859C9.98438 22.3958 10.3099 19.3359 10.7656 16.4062C11.2865 13.4115 12.1003 10.8073 13.207 8.59375C14.3138 6.3151 16.0716 4.85026 18.4805 4.19922C18.9362 5.82682 19.5221 7.25911 20.2383 8.49609C21.0195 9.73307 21.8333 10.9375 22.6797 12.1094C23.5911 13.2812 24.5026 14.4531 25.4141 15.625C26.3255 16.7969 27.1719 18.099 27.9531 19.5312C27.888 21.0286 27.7253 22.7539 27.4648 24.707C27.2695 26.6602 26.9766 28.6458 26.5859 30.6641C26.2604 32.6823 25.9023 34.6354 25.5117 36.5234C25.1862 38.4115 24.8607 40.0065 24.5352 41.3086C24.6003 41.6341 24.8281 41.862 25.2188 41.9922C25.6094 42.0573 25.6745 42.4154 25.4141 43.0664C27.3021 42.6107 29.2552 42.1875 31.2734 41.7969C33.3568 41.3411 35.375 40.918 37.3281 40.5273C39.3464 40.0716 41.2995 39.5508 43.1875 38.9648C45.1406 38.3789 46.9635 37.6628 48.6562 36.8164C49.0469 33.6914 49.5352 30.599 50.1211 27.5391C50.707 24.4792 50.7721 21.3867 50.3164 18.2617C50.707 17.9362 51.0326 17.5456 51.293 17.0898C51.5534 16.6341 51.944 16.3411 52.4648 16.2109C52.0742 14.7135 51.9115 13.151 51.9766 11.5234C52.0417 9.83073 52.3021 8.26823 52.7578 6.83594C53.2786 5.40365 54.0273 4.16667 55.0039 3.125C55.9805 2.01823 57.1849 1.30208 58.6172 0.976562C59.4635 2.21354 60.2122 3.54818 60.8633 4.98047C61.5143 6.41276 62.1654 7.8776 62.8164 9.375C63.4674 10.8073 64.151 12.1745 64.8672 13.4766C65.6484 14.7786 66.625 15.8854 67.7969 16.7969C67.9922 19.0755 68.1549 21.4193 68.2852 23.8281C68.4154 26.1719 68.513 28.6133 68.5781 31.1523C67.9922 34.082 67.3086 36.9466 66.5273 39.7461C65.8112 42.4805 65.2904 45.4102 64.9648 48.5352C64.444 49.1211 64.0208 49.8372 63.6953 50.6836C63.3698 51.4648 63.0443 52.2786 62.7188 53.125C62.4583 53.9062 62.1328 54.6875 61.7422 55.4688C61.3516 56.25 60.8633 56.901 60.2773 57.4219C60.5378 58.3333 60.5703 59.2122 60.375 60.0586C60.2448 60.8398 60.4727 61.7839 61.0586 62.8906C61.1888 64.9089 60.9284 66.6016 60.2773 67.9688C59.6914 69.2708 58.8451 70.4102 57.7383 71.3867C56.6966 72.2982 55.4596 73.0469 54.0273 73.6328C52.6602 74.1536 51.293 74.6419 49.9258 75.0977C49.2747 74.707 48.6562 74.3164 48.0703 73.9258C47.5495 73.4701 46.8984 73.1445 46.1172 72.9492L46.6055 72.0703C45.3034 70.7682 44.1641 69.401 43.1875 67.9688C42.276 66.4714 41.8529 64.7786 41.918 62.8906C41.918 62.8255 41.9831 62.4023 42.1133 61.6211C42.2435 60.7747 42.3737 59.8958 42.5039 58.9844C42.6992 58.0729 42.862 57.2266 42.9922 56.4453C43.1875 55.599 43.2852 55.1432 43.2852 55.0781C41.4622 55.2734 39.5742 55.6966 37.6211 56.3477C35.668 56.9987 33.7474 57.7474 31.8594 58.5938C30.0365 59.375 28.3112 60.2214 26.6836 61.1328C25.1211 61.9792 23.8516 62.6953 22.875 63.2812C22.875 63.4766 22.7122 64.0299 22.3867 64.9414C22.0612 65.8529 21.6706 66.8294 21.2148 67.8711C20.7591 68.8477 20.2383 69.7266 19.6523 70.5078C19.1315 71.2891 18.5781 71.6471 17.9922 71.582C18.1224 71.9076 18.2526 72.168 18.3828 72.3633C18.513 72.4935 18.513 72.7865 18.3828 73.2422C17.276 73.5677 16.2669 73.9909 15.3555 74.5117C14.5091 75.0326 13.6302 75.4557 12.7188 75.7812C11.8073 76.1719 10.7982 76.3346 9.69141 76.2695C8.64974 76.2695 7.38021 75.8789 5.88281 75.0977C5.88281 74.6419 5.6875 74.2513 5.29688 73.9258C4.90625 73.5352 4.48307 73.2096 4.02734 72.9492C3.63672 72.6888 3.27865 72.4609 2.95312 72.2656C2.6276 72.0703 2.46484 71.875 2.46484 71.6797ZM125.023 20.0195C125.089 20.4753 125.089 20.8333 125.023 21.0938C125.023 21.2891 124.991 21.4844 124.926 21.6797C124.926 21.875 124.926 22.1029 124.926 22.3633C124.926 22.5586 124.991 22.8841 125.121 23.3398C123.754 25.5534 122.159 27.0833 120.336 27.9297C118.578 28.7109 116.658 29.2969 114.574 29.6875C112.491 30.013 110.342 30.3711 108.129 30.7617C105.98 31.1523 103.832 31.9987 101.684 33.3008C100.837 32.9753 100.056 32.9753 99.3398 33.3008C98.6888 33.6263 97.7122 33.724 96.4102 33.5938C96.0195 33.9844 95.5312 34.2773 94.9453 34.4727C94.3594 34.6029 93.7734 34.7656 93.1875 34.9609C93.4479 35.5469 93.5456 36.1654 93.4805 36.8164C93.4805 37.4023 93.5781 37.8906 93.7734 38.2812C96.0521 38.4766 98.5586 38.444 101.293 38.1836C104.092 37.9232 106.827 37.7604 109.496 37.6953C109.561 38.0208 109.529 38.2487 109.398 38.3789C109.268 38.444 109.236 38.6068 109.301 38.8672C109.757 39.1927 110.212 39.6159 110.668 40.1367C111.124 40.5924 111.579 41.0482 112.035 41.5039C112.491 41.9596 112.947 42.3503 113.402 42.6758C113.923 42.9362 114.509 43.0339 115.16 42.9688C115.421 43.4896 115.583 44.0755 115.648 44.7266C115.779 45.3125 115.714 45.931 115.453 46.582C114.411 47.2982 113.37 48.0469 112.328 48.8281C111.286 49.5443 110.18 50.1953 109.008 50.7812C107.901 51.3672 106.697 51.8555 105.395 52.2461C104.158 52.5716 102.758 52.7018 101.195 52.6367C100.87 52.6367 100.609 52.6367 100.414 52.6367C100.284 52.6367 100.089 52.5391 99.8281 52.3438C99.3073 52.6693 98.5586 52.7669 97.582 52.6367C96.6706 52.5065 95.9544 52.6042 95.4336 52.9297C94.7174 52.6042 93.8385 52.474 92.7969 52.5391C91.8203 52.5391 90.9414 52.4089 90.1602 52.1484C89.1185 53.5156 88.1745 54.9805 87.3281 56.543C86.4818 58.1055 85.7331 59.7656 85.082 61.5234C87.2956 61.849 89.1185 61.9792 90.5508 61.9141C92.0482 61.849 93.4479 61.7513 94.75 61.6211C96.0521 61.4258 97.3867 61.263 98.7539 61.1328C100.121 60.9375 101.846 60.8724 103.93 60.9375C105.232 60.2214 106.762 59.7656 108.52 59.5703C110.342 59.3099 112.003 58.9193 113.5 58.3984C114.021 58.5938 114.477 58.9518 114.867 59.4727C115.258 59.9284 115.616 60.3841 115.941 60.8398C116.332 61.2305 116.723 61.5885 117.113 61.9141C117.504 62.2396 117.992 62.3698 118.578 62.3047C118.839 62.5651 119.001 62.8906 119.066 63.2812C119.197 63.6068 119.294 63.9323 119.359 64.2578C119.424 64.5833 119.522 64.8763 119.652 65.1367C119.848 65.332 120.141 65.3971 120.531 65.332C119.555 67.4805 118.415 69.1406 117.113 70.3125C115.876 71.4193 114.444 72.2656 112.816 72.8516C111.189 73.4375 109.366 73.8932 107.348 74.2188C105.395 74.5443 103.214 74.9349 100.805 75.3906C100.219 75.5208 99.7305 75.4883 99.3398 75.293C98.9492 75.1628 98.4935 75.0977 97.9727 75.0977C96.4753 75.4232 94.6849 75.7161 92.6016 75.9766C90.5182 76.237 88.4023 76.3346 86.2539 76.2695C84.1055 76.2044 82.0547 75.9115 80.1016 75.3906C78.1484 74.9349 76.5534 74.0885 75.3164 72.8516C74.7956 72.3958 74.4375 71.875 74.2422 71.2891C74.112 70.638 73.6888 70.1497 72.9727 69.8242C72.9076 68.9779 72.7773 68.0339 72.582 66.9922C72.3867 65.9505 72.1914 64.8763 71.9961 63.7695C71.8008 62.5977 71.638 61.4583 71.5078 60.3516C71.4427 59.2448 71.5078 58.2357 71.7031 57.3242C71.8984 56.3477 72.2891 55.4688 72.875 54.6875C73.526 53.9062 73.7539 53.0599 73.5586 52.1484C73.8841 52.0833 74.0794 51.9206 74.1445 51.6602C74.2096 51.3346 74.4701 51.2044 74.9258 51.2695C75.3164 50.0977 75.7396 48.9909 76.1953 47.9492C76.651 46.9076 77.1068 45.8984 77.5625 44.9219C78.0833 43.9453 78.5716 42.9688 79.0273 41.9922C79.5482 40.9505 80.0365 39.8112 80.4922 38.5742C79.5807 37.7279 78.8971 36.8164 78.4414 35.8398C78.0508 34.7982 77.7578 33.7891 77.5625 32.8125C77.3672 31.7708 77.2044 30.7292 77.0742 29.6875C76.944 28.5807 76.7161 27.474 76.3906 26.3672C77.0417 25.3906 77.8229 24.6094 78.7344 24.0234C79.7109 23.3724 80.7526 22.8516 81.8594 22.4609C82.9661 22.0703 84.1706 21.7448 85.4727 21.4844C86.7747 21.224 88.1419 20.931 89.5742 20.6055C92.1784 19.7591 94.4896 19.1081 96.5078 18.6523C98.5911 18.1966 100.609 17.8385 102.562 17.5781C104.581 17.2526 106.664 16.9596 108.812 16.6992C110.961 16.4388 113.402 16.0482 116.137 15.5273C116.723 16.1133 117.276 16.4062 117.797 16.4062C118.057 15.8203 118.35 15.6576 118.676 15.918C119.066 16.1133 119.229 15.918 119.164 15.332C119.815 16.4388 120.629 17.3828 121.605 18.1641C122.647 18.8802 123.786 19.4987 125.023 20.0195ZM148.461 73.9258C146.638 74.5117 144.652 75.0977 142.504 75.6836C140.355 76.2695 138.207 76.5625 136.059 76.5625C132.803 76.5625 130.232 75.7487 128.344 74.1211C128.018 73.4049 127.725 72.9167 127.465 72.6562C127.27 72.3958 127.074 72.1354 126.879 71.875C126.749 71.5495 126.651 71.1263 126.586 70.6055C125.805 69.694 125.186 68.6523 124.73 67.4805C124.275 66.2435 123.949 65.0065 123.754 63.7695C123.624 62.4674 123.591 61.1654 123.656 59.8633C123.786 58.5612 124.014 57.3242 124.34 56.1523C124.47 55.8919 124.535 55.6315 124.535 55.3711C124.6 55.1107 124.665 54.8177 124.73 54.4922C124.991 53.4505 125.251 52.4414 125.512 51.4648C125.837 50.4883 126.26 49.6419 126.781 48.9258C126.521 48.3398 126.521 47.6888 126.781 46.9727C127.042 46.2565 127.335 45.6055 127.66 45.0195C128.572 42.5456 129.32 40.4622 129.906 38.7695C130.557 37.0117 131.208 35.2865 131.859 33.5938C132.966 30.6641 134.008 27.7669 134.984 24.9023C135.961 22.0378 136.84 18.9453 137.621 15.625C138.142 15.2995 138.533 15.0716 138.793 14.9414C139.184 14.8112 139.509 14.7135 139.77 14.6484C140.941 15.2344 142.309 15.8203 143.871 16.4062C145.434 16.9271 146.736 17.1875 147.777 17.1875C148.298 17.513 148.624 17.7734 148.754 17.9688C148.884 18.099 149.014 18.2292 149.145 18.3594C149.861 19.2057 150.479 20.0846 151 20.9961C151.521 21.8424 151.684 22.9818 151.488 24.4141C151.098 25 150.805 25.293 150.609 25.293C150.284 26.5951 149.926 27.7018 149.535 28.6133C149.21 29.5247 148.852 30.4362 148.461 31.3477C148.005 32.3242 147.582 33.3008 147.191 34.2773C146.801 35.2539 146.475 36.4583 146.215 37.8906C145.954 38.2161 145.759 38.5091 145.629 38.7695C145.564 39.0299 145.466 39.3229 145.336 39.6484C145.206 39.974 145.043 40.332 144.848 40.7227C144.717 41.0482 144.49 41.3411 144.164 41.6016C143.969 43.2943 143.643 44.6615 143.188 45.7031C142.797 46.7448 142.374 47.7865 141.918 48.8281C141.137 50.7161 140.421 52.6042 139.77 54.4922C139.184 56.3802 138.826 58.5286 138.695 60.9375C139.021 60.8073 139.314 60.7422 139.574 60.7422C139.9 60.7422 140.193 60.7422 140.453 60.7422C141.039 60.7422 141.723 60.8398 142.504 61.0352C144.457 59.9935 146.573 59.375 148.852 59.1797C151.195 58.9844 153.507 58.8542 155.785 58.7891C156.697 58.7891 157.608 58.7891 158.52 58.7891C159.431 58.7891 160.277 58.724 161.059 58.5938C161.645 58.9193 162.003 59.1146 162.133 59.1797C162.328 59.1797 162.589 59.1797 162.914 59.1797C163.37 59.1797 163.76 59.2122 164.086 59.2773C164.867 59.9935 165.616 60.5143 166.332 60.8398C167.048 61.1654 167.797 61.4583 168.578 61.7188C169.294 61.9792 169.978 62.2721 170.629 62.5977C171.345 62.8581 172.029 63.2487 172.68 63.7695L173.363 67.9688C173.819 68.5547 174.014 68.9453 173.949 69.1406C173.949 69.6615 173.819 70.0521 173.559 70.3125L173.754 71.3867C172.777 71.582 172.094 71.8099 171.703 72.0703C171.378 72.3307 171.052 72.6237 170.727 72.9492C170.206 73.0143 169.815 73.0469 169.555 73.0469C169.359 73.0469 169.164 73.0469 168.969 73.0469C168.057 73.0469 166.951 73.2096 165.648 73.5352C163.891 72.9492 162.068 72.6562 160.18 72.6562C159.464 72.6562 158.715 72.6888 157.934 72.7539C157.152 72.819 156.371 72.8841 155.59 72.9492C154.809 73.0794 153.995 73.1771 153.148 73.2422C152.367 73.3073 151.553 73.3398 150.707 73.3398L148.461 73.9258ZM210.863 14.4531C213.598 14.7786 216.039 15.332 218.188 16.1133C220.336 16.8945 222.159 17.9362 223.656 19.2383C224.698 20.8659 225.674 22.6237 226.586 24.5117C227.562 26.3997 228.279 28.3854 228.734 30.4688C229.255 32.487 229.483 34.5703 229.418 36.7188C229.418 38.8672 228.962 41.0482 228.051 43.2617C226.163 45.6055 223.852 47.526 221.117 49.0234C218.448 50.4557 215.551 51.6276 212.426 52.5391C209.301 53.4505 206.046 54.2318 202.66 54.8828C199.34 55.5339 196.085 56.1849 192.895 56.8359C192.96 58.3333 192.96 59.9284 192.895 61.6211C192.895 63.2487 192.732 64.9089 192.406 66.6016C192.146 68.2292 191.723 69.8242 191.137 71.3867C190.551 72.9492 189.77 74.3815 188.793 75.6836C187.686 75.6836 186.547 75.8138 185.375 76.0742C184.203 76.3997 183.161 76.6602 182.25 76.8555C181.794 76.5951 181.371 76.3346 180.98 76.0742C180.655 75.8789 180.167 75.7487 179.516 75.6836C179.646 75.0326 179.483 74.3815 179.027 73.7305C178.572 73.0143 178.116 72.2982 177.66 71.582C177.204 70.8659 176.879 70.1823 176.684 69.5312C176.553 68.8802 176.879 68.2617 177.66 67.6758C177.204 67.2201 176.977 66.6341 176.977 65.918C177.432 65.1367 177.823 64.0625 178.148 62.6953C178.539 61.3281 178.832 59.9935 179.027 58.6914C179.288 57.3242 179.353 56.0872 179.223 54.9805C179.092 53.8737 178.441 53.0599 177.27 52.5391C177.335 52.4089 177.465 52.3438 177.66 52.3438C177.855 52.3438 178.051 52.3112 178.246 52.2461C177.725 51.8555 177.4 51.3021 177.27 50.5859C177.204 49.8698 176.977 49.2513 176.586 48.7305C176.716 48.4049 176.814 48.112 176.879 47.8516C176.944 47.5911 177.172 47.4935 177.562 47.5586C177.367 46.3867 177.367 45.2799 177.562 44.2383C177.823 43.1966 178.181 42.2201 178.637 41.3086C179.092 40.332 179.646 39.388 180.297 38.4766C180.948 37.5651 181.566 36.6536 182.152 35.7422C182.608 35.6771 182.868 35.7422 182.934 35.9375C183.064 36.1328 183.292 36.1003 183.617 35.8398C184.464 35.1888 185.049 34.5052 185.375 33.7891C185.701 33.0729 185.863 32.2591 185.863 31.3477C186.319 29.9805 186.872 28.6133 187.523 27.2461C188.174 25.8138 188.891 24.5117 189.672 23.3398C190.453 22.168 191.299 21.1263 192.211 20.2148C193.188 19.3034 194.197 18.6198 195.238 18.1641C196.02 17.513 196.996 16.9271 198.168 16.4062C199.34 15.8203 200.609 15.3971 201.977 15.1367C203.344 14.8112 204.711 14.6484 206.078 14.6484C207.51 14.5833 208.812 14.7135 209.984 15.0391C210.31 15.1693 210.473 15.1042 210.473 14.8438C210.538 14.5833 210.668 14.4531 210.863 14.4531ZM206.859 37.793C208.487 37.0768 210.212 36.5234 212.035 36.1328C213.923 35.6771 215.486 34.8633 216.723 33.6914C215.941 32.9753 214.802 32.3568 213.305 31.8359C211.807 31.25 210.18 30.8919 208.422 30.7617C206.664 30.6315 204.874 30.7943 203.051 31.25C201.293 31.6406 199.763 32.4219 198.461 33.5938C198.07 34.7656 197.745 35.7096 197.484 36.4258C197.224 37.0768 196.866 37.8906 196.41 38.8672C196.54 39.1927 196.736 39.4531 196.996 39.6484C197.322 39.7786 197.549 40.0065 197.68 40.332C199.177 39.5508 200.674 39.1276 202.172 39.0625C203.734 38.9323 205.297 38.5091 206.859 37.793ZM2.26953 100.957C2.46484 99.9805 2.59505 99.1992 2.66016 98.6133C2.72526 97.9622 2.4974 97.2786 1.97656 96.5625C2.23698 95.5208 2.43229 94.707 2.5625 94.1211C2.75781 93.5352 2.79036 92.7214 2.66016 91.6797C3.24609 89.987 4.125 88.5547 5.29688 87.3828C6.53385 86.2109 7.86849 85.2344 9.30078 84.4531C10.7331 83.6068 12.2305 82.9232 13.793 82.4023C15.3555 81.8164 16.8203 81.3281 18.1875 80.9375C18.1875 80.6771 18.0573 80.5469 17.7969 80.5469C17.5365 80.5469 17.4714 80.3841 17.6016 80.0586C21.1172 79.4076 24.6328 78.4635 28.1484 77.2266C31.7292 75.9896 35.375 74.8828 39.0859 73.9062C42.7969 72.9297 46.6055 72.3438 50.5117 72.1484C54.418 71.888 58.5195 72.3763 62.8164 73.6133C63.0768 74.3945 63.4349 75.1432 63.8906 75.8594C64.3464 76.5755 64.8021 77.2917 65.2578 78.0078C65.7786 78.6589 66.2344 79.3099 66.625 79.9609C67.0156 80.612 67.2435 81.2956 67.3086 82.0117C68.0898 82.7279 68.7083 83.5091 69.1641 84.3555C69.6849 85.1367 69.7826 86.2109 69.457 87.5781C68.7409 88.099 67.9922 88.6198 67.2109 89.1406C66.4297 89.6615 65.6159 90.1497 64.7695 90.6055C61.8398 89.8893 58.9102 89.6289 55.9805 89.8242C53.0508 90.0195 50.4141 90.2474 48.0703 90.5078C47.3542 89.7266 46.5078 89.3685 45.5312 89.4336C44.5547 89.4336 43.513 89.5964 42.4062 89.9219C41.3646 90.1823 40.3229 90.4753 39.2812 90.8008C38.2396 91.0612 37.263 91.1263 36.3516 90.9961C35.6354 91.6471 34.6914 92.1029 33.5195 92.3633C32.3477 92.5586 31.1107 92.7214 29.8086 92.8516C29.7435 93.1771 29.8086 93.4049 30.0039 93.5352C30.1992 93.6654 30.2318 93.9258 30.1016 94.3164C30.5573 94.9023 31.1758 95.3255 31.957 95.5859C32.7383 95.7812 33.5195 95.9766 34.3008 96.1719C35.1471 96.3672 35.8958 96.6602 36.5469 97.0508C37.1979 97.3763 37.6211 97.9297 37.8164 98.7109C38.9883 98.776 39.9974 99.1016 40.8438 99.6875C41.6901 100.208 42.4062 100.859 42.9922 101.641C43.5781 102.422 44.0013 103.268 44.2617 104.18C44.5221 105.026 44.6198 105.807 44.5547 106.523C44.8151 107.174 45.0755 107.435 45.3359 107.305C45.6615 107.174 46.0195 107.337 46.4102 107.793C46.6706 108.77 47.2565 109.811 48.168 110.918C49.1445 111.96 49.8932 113.099 50.4141 114.336C50.5443 116.289 50.6419 118.047 50.707 119.609C50.8372 121.172 50.5768 122.702 49.9258 124.199C48.819 127.064 47.224 129.635 45.1406 131.914C43.0573 134.193 40.681 136.211 38.0117 137.969C35.4076 139.661 32.6406 141.159 29.7109 142.461C26.7812 143.698 23.8841 144.74 21.0195 145.586C20.7591 145.521 20.4336 145.521 20.043 145.586C19.7174 145.651 19.6523 145.456 19.8477 145C19.2617 145.521 18.5781 145.846 17.7969 145.977C17.0807 146.107 16.2669 146.139 15.3555 146.074C14.5091 146.074 13.6302 146.042 12.7188 145.977C11.8724 145.911 11.026 145.944 10.1797 146.074C9.65885 145.553 9.17057 145.033 8.71484 144.512C8.32422 143.991 7.9987 143.372 7.73828 142.656C7.41276 142.591 7.25 142.396 7.25 142.07C7.3151 141.68 7.1849 141.484 6.85938 141.484C6.85938 141.224 6.89193 141.029 6.95703 140.898C7.02214 140.768 7.08724 140.638 7.15234 140.508C7.41276 140.312 7.51042 140.182 7.44531 140.117C7.44531 139.987 7.34766 139.889 7.15234 139.824C7.02214 139.694 6.85938 139.564 6.66406 139.434C6.53385 139.303 6.5013 139.141 6.56641 138.945C6.89193 138.359 6.98958 137.676 6.85938 136.895C6.79427 136.048 6.72917 135.202 6.66406 134.355C6.59896 133.509 6.66406 132.728 6.85938 132.012C7.05469 131.23 7.60807 130.579 8.51953 130.059C11.1888 130.319 13.6953 130.189 16.0391 129.668C18.4479 129.147 20.694 128.431 22.7773 127.52C24.9258 126.608 26.944 125.632 28.832 124.59C30.7852 123.483 32.6732 122.474 34.4961 121.562C34.6914 120.911 34.9844 120.358 35.375 119.902C35.8307 119.447 36.2865 119.023 36.7422 118.633C37.1979 118.177 37.6211 117.721 38.0117 117.266C38.4023 116.745 38.6953 116.126 38.8906 115.41C38.9557 115.15 38.9557 114.954 38.8906 114.824C38.8255 114.694 38.7279 114.596 38.5977 114.531C38.4674 114.401 38.3372 114.271 38.207 114.141C38.0768 114.01 38.0117 113.815 38.0117 113.555C37.8164 113.49 37.6211 113.424 37.4258 113.359C37.2956 113.294 37.1654 113.262 37.0352 113.262C35.3424 112.415 33.5521 111.699 31.6641 111.113C29.776 110.527 28.181 109.876 26.8789 109.16C26.0977 109.681 25.3164 109.811 24.5352 109.551C23.7539 109.29 22.8099 109.03 21.7031 108.77C18.9688 108.639 16.3646 108.379 13.8906 107.988C11.4818 107.598 9.13802 106.914 6.85938 105.938C6.72917 105.547 6.56641 105.221 6.37109 104.961C6.17578 104.635 5.72005 104.538 5.00391 104.668C4.54818 104.017 4.0599 103.431 3.53906 102.91C3.08333 102.324 2.66016 101.673 2.26953 100.957ZM110.277 136.797C109.887 137.904 109.301 139.043 108.52 140.215C107.803 141.322 106.924 142.331 105.883 143.242C104.906 144.089 103.799 144.805 102.562 145.391C101.326 145.977 100.023 146.302 98.6562 146.367C97.8099 146.172 97.224 145.944 96.8984 145.684C96.638 145.488 96.3451 145.293 96.0195 145.098C95.8242 144.967 95.6289 144.87 95.4336 144.805C95.3034 144.674 95.1732 144.577 95.043 144.512L93.8711 144.023L94.2617 142.754C94.3919 142.233 94.3594 141.842 94.1641 141.582C93.9688 141.257 93.5781 140.833 92.9922 140.312C92.7969 140.117 92.6016 139.922 92.4062 139.727C92.2109 139.531 92.0482 139.336 91.918 139.141L90.2578 137.285L92.8945 136.602C94.5221 136.146 95.5964 135.56 96.1172 134.844C96.7031 134.128 96.931 132.923 96.8008 131.23C95.4987 130.97 94.3919 130.938 93.4805 131.133C92.6341 131.328 91.7552 131.556 90.8438 131.816C89.6719 132.142 88.4674 132.435 87.2305 132.695C86.0586 132.891 84.7565 132.988 83.3242 132.988C82.8034 132.988 82.3151 132.988 81.8594 132.988C81.4036 132.923 80.9154 132.858 80.3945 132.793L79.418 132.598C79.2878 131.882 79.1576 131.491 79.0273 131.426C78.8971 131.296 78.7669 131.165 78.6367 131.035C78.3112 130.71 77.9531 130.286 77.5625 129.766C77.237 129.18 77.1719 128.464 77.3672 127.617C77.0417 127.031 76.8464 126.445 76.7812 125.859C76.3906 126.641 76.0977 127.454 75.9023 128.301L75.5117 129.277L74.5352 129.473C74.4049 129.538 74.3073 129.701 74.2422 129.961C74.1771 130.156 74.1445 130.319 74.1445 130.449L73.6562 132.109C73.526 132.24 73.3958 132.37 73.2656 132.5C73.1354 132.565 73.0052 132.663 72.875 132.793C72.7448 133.379 72.582 133.965 72.3867 134.551C72.1914 135.137 71.9961 135.69 71.8008 136.211C71.4753 137.057 71.1823 137.904 70.9219 138.75C70.7266 139.531 70.6615 140.312 70.7266 141.094L70.3359 142.168C70.0104 142.559 69.6523 142.884 69.2617 143.145C68.8711 143.34 68.4805 143.535 68.0898 143.73C67.9596 143.861 67.7643 143.991 67.5039 144.121C67.3086 144.186 67.1458 144.251 67.0156 144.316L66.7227 145.391L65.5508 145.586C64.8346 145.716 64.3138 145.814 63.9883 145.879C63.7279 145.944 63.4023 145.977 63.0117 145.977L62.0352 145.879C61.319 145.293 60.7656 144.837 60.375 144.512C59.9844 144.121 59.5286 143.763 59.0078 143.438C58.4219 142.656 58.0964 142.07 58.0312 141.68C57.9661 141.289 57.901 140.931 57.8359 140.605C57.7057 140.215 57.6406 139.889 57.6406 139.629C57.5755 139.368 57.4779 139.173 57.3477 139.043L56.0781 137.871L57.1523 136.992L57.25 135.332C58.5521 132.012 59.9193 128.822 61.3516 125.762C62.849 122.702 64.3789 119.577 65.9414 116.387C66.4622 115.345 66.9505 114.303 67.4062 113.262C67.9271 112.22 68.4479 111.178 68.9688 110.137C68.9036 109.941 68.8711 109.714 68.8711 109.453C68.8711 109.193 68.9362 108.9 69.0664 108.574C69.7826 107.467 70.3685 106.491 70.8242 105.645C71.2799 104.733 71.7357 103.822 72.1914 102.91C72.7122 101.803 73.2331 100.729 73.7539 99.6875C74.3398 98.6458 75.056 97.5716 75.9023 96.4648L77.4648 95.7812C77.6602 95.7161 77.888 95.651 78.1484 95.5859C78.4089 95.4557 78.7018 95.3906 79.0273 95.3906L80.4922 95.5859C82.3151 94.7396 83.9102 93.5677 85.2773 92.0703C86.6445 90.5078 88.0443 88.6523 89.4766 86.5039L90.4531 85.1367L91.7227 85.918C92.0482 86.1133 92.5039 86.3086 93.0898 86.5039C93.6758 86.6341 94.2943 86.7969 94.9453 86.9922C96.1172 87.2526 97.224 87.5456 98.2656 87.8711C99.3073 88.1966 100.154 88.6849 100.805 89.3359C101.195 90.3776 101.423 91.1589 101.488 91.6797C101.553 92.2005 101.651 92.7214 101.781 93.2422C101.977 94.349 102.139 95.4557 102.27 96.5625C102.465 97.6693 102.595 98.9062 102.66 100.273C102.986 101.38 103.246 102.487 103.441 103.594C103.702 104.635 103.93 105.71 104.125 106.816C104.451 108.379 104.776 109.909 105.102 111.406C105.427 112.839 105.85 114.206 106.371 115.508C106.892 115.508 107.217 115.54 107.348 115.605C107.673 115.475 107.999 115.378 108.324 115.312C108.715 115.247 109.138 115.182 109.594 115.117L110.668 115.02L111.059 115.996C111.124 116.322 111.449 116.647 112.035 116.973C112.882 117.038 113.5 117.233 113.891 117.559C114.281 117.819 114.639 118.112 114.965 118.438C115.225 118.698 115.486 118.893 115.746 119.023L117.211 119.609L116.43 121.074C115.779 122.246 114.835 123.385 113.598 124.492C112.426 125.534 111.091 126.413 109.594 127.129C109.659 127.52 109.691 127.91 109.691 128.301C109.757 128.626 109.854 128.984 109.984 129.375C110.18 130.482 110.342 131.621 110.473 132.793C110.603 133.965 110.603 135.169 110.473 136.406L110.277 136.797ZM82.0547 119.902C84.0078 119.772 85.7656 119.642 87.3281 119.512C88.9557 119.316 90.7461 119.023 92.6992 118.633C92.2435 116.68 91.7552 114.661 91.2344 112.578C90.7135 110.43 90.1602 108.314 89.5742 106.23L88.9883 107.207C87.6862 108.574 86.4167 110.104 85.1797 111.797C84.0078 113.49 82.9987 115.085 82.1523 116.582C81.7617 117.168 81.3711 117.754 80.9805 118.34C80.5898 118.926 80.2318 119.512 79.9062 120.098C80.2969 120.033 80.6549 120 80.9805 120C81.3711 120 81.7292 119.967 82.0547 119.902ZM184.301 143.242C183.65 143.568 183.031 143.861 182.445 144.121C181.924 144.382 181.306 144.512 180.59 144.512C178.051 142.624 176.716 139.336 176.586 134.648C176.521 129.961 177.53 124.004 179.613 116.777C179.939 116.582 180.102 116.191 180.102 115.605L179.223 114.629C178.962 114.629 178.702 114.661 178.441 114.727C178.246 114.792 178.083 115.02 177.953 115.41C176.26 116.647 174.405 117.949 172.387 119.316C170.368 120.618 168.253 121.855 166.039 123.027C163.891 124.134 161.677 125.046 159.398 125.762C157.185 126.478 155.004 126.836 152.855 126.836C147.387 126.836 143.285 124.069 140.551 118.535L139.77 117.07L138.988 118.34C138.793 118.6 138.5 119.154 138.109 120C137.719 120.781 137.328 121.693 136.938 122.734C136.547 123.776 136.189 124.85 135.863 125.957C135.603 126.999 135.505 127.91 135.57 128.691C134.984 129.277 134.366 129.961 133.715 130.742C133.064 131.523 132.576 132.402 132.25 133.379C132.12 133.9 132.185 134.388 132.445 134.844C132.315 135.43 132.022 135.885 131.566 136.211C131.306 136.536 131.013 136.862 130.688 137.188C130.427 137.448 130.199 137.741 130.004 138.066C129.874 138.392 129.776 138.717 129.711 139.043C129.711 139.368 129.678 139.694 129.613 140.02C129.613 140.475 129.548 140.898 129.418 141.289C128.311 143.568 127.432 145.033 126.781 145.684C126.13 146.4 125.251 146.758 124.145 146.758C123.624 146.758 122.777 146.66 121.605 146.465C120.759 145.553 119.978 144.316 119.262 142.754C118.611 141.126 118.09 139.401 117.699 137.578C117.374 135.755 117.211 133.932 117.211 132.109C117.276 130.221 117.602 128.594 118.188 127.227C118.188 127.161 118.448 126.51 118.969 125.273C119.49 124.036 120.141 122.441 120.922 120.488C121.768 118.535 122.712 116.387 123.754 114.043C124.796 111.634 125.837 109.323 126.879 107.109C127.921 104.831 128.897 102.747 129.809 100.859C130.785 98.9714 131.599 97.5391 132.25 96.5625C132.771 95.7812 133.227 95.0651 133.617 94.4141C134.073 93.6979 134.496 93.0143 134.887 92.3633C136.059 90.3451 137.165 88.6849 138.207 87.3828C139.314 86.0156 140.909 84.9414 142.992 84.1602C144.424 84.7461 145.466 85.4297 146.117 86.2109L146.312 87.2852C146.573 87.9362 146.964 88.2617 147.484 88.2617C148.201 88.457 148.786 88.6523 149.242 88.8477C149.763 88.9779 150.316 89.1081 150.902 89.2383C151.358 89.7591 151.781 90.3776 152.172 91.0938C152.693 91.875 153.181 92.6562 153.637 93.4375C154.158 94.1536 154.548 94.9023 154.809 95.6836C155.134 96.3997 155.297 97.1484 155.297 97.9297C155.362 98.7109 155.232 99.5247 154.906 100.371L155.004 101.348C155.329 101.934 155.395 102.747 155.199 103.789C155.134 104.245 155.102 104.733 155.102 105.254C155.102 105.71 155.167 106.23 155.297 106.816C156.469 107.728 157.51 108.184 158.422 108.184C159.464 108.184 160.408 107.956 161.254 107.5C162.165 106.979 163.012 106.458 163.793 105.938C164.314 105.547 164.835 105.221 165.355 104.961C165.876 104.635 166.397 104.44 166.918 104.375C168.09 103.268 169.132 102.292 170.043 101.445C171.02 100.599 172.029 99.7526 173.07 98.9062C175.023 97.3438 176.911 95.651 178.734 93.8281C180.557 92.0052 182.022 89.7266 183.129 86.9922C183.78 86.6016 184.464 86.4062 185.18 86.4062C185.896 86.4062 186.645 86.569 187.426 86.8945C188.207 87.2201 188.956 87.5456 189.672 87.8711C189.867 88.0013 190.03 88.099 190.16 88.1641C190.355 88.2292 190.518 88.2943 190.648 88.3594C190.648 89.0104 190.909 89.5638 191.43 90.0195C191.69 90.2148 191.853 90.3451 191.918 90.4102C191.983 90.4753 192.081 90.5404 192.211 90.6055C193.188 91.1263 193.806 91.6471 194.066 92.168C194.522 93.6654 195.336 94.8047 196.508 95.5859C196.378 96.237 196.378 96.8555 196.508 97.4414C196.703 97.9622 196.931 98.5156 197.191 99.1016C197.257 99.2969 197.322 99.4922 197.387 99.6875C197.452 99.8828 197.549 100.111 197.68 100.371L195.824 100.176L196.117 102.031C196.247 102.943 196.15 103.952 195.824 105.059C195.564 106.165 195.238 107.044 194.848 107.695C194.913 109.388 194.945 110.723 194.945 111.699C195.01 112.611 194.978 113.49 194.848 114.336C194.717 115.117 194.522 115.866 194.262 116.582C194.066 117.298 193.773 118.079 193.383 118.926C193.643 123.092 193.155 126.901 191.918 130.352C190.746 133.737 189.509 136.927 188.207 139.922C188.077 140.247 187.914 140.573 187.719 140.898C187.589 141.224 187.458 141.549 187.328 141.875C186.742 142.07 186.221 142.298 185.766 142.559C185.31 142.754 184.822 142.982 184.301 143.242ZM249.828 136.797C249.438 137.904 248.852 139.043 248.07 140.215C247.354 141.322 246.475 142.331 245.434 143.242C244.457 144.089 243.35 144.805 242.113 145.391C240.876 145.977 239.574 146.302 238.207 146.367C237.361 146.172 236.775 145.944 236.449 145.684C236.189 145.488 235.896 145.293 235.57 145.098C235.375 144.967 235.18 144.87 234.984 144.805C234.854 144.674 234.724 144.577 234.594 144.512L233.422 144.023L233.812 142.754C233.943 142.233 233.91 141.842 233.715 141.582C233.52 141.257 233.129 140.833 232.543 140.312C232.348 140.117 232.152 139.922 231.957 139.727C231.762 139.531 231.599 139.336 231.469 139.141L229.809 137.285L232.445 136.602C234.073 136.146 235.147 135.56 235.668 134.844C236.254 134.128 236.482 132.923 236.352 131.23C235.049 130.97 233.943 130.938 233.031 131.133C232.185 131.328 231.306 131.556 230.395 131.816C229.223 132.142 228.018 132.435 226.781 132.695C225.609 132.891 224.307 132.988 222.875 132.988C222.354 132.988 221.866 132.988 221.41 132.988C220.954 132.923 220.466 132.858 219.945 132.793L218.969 132.598C218.839 131.882 218.708 131.491 218.578 131.426C218.448 131.296 218.318 131.165 218.188 131.035C217.862 130.71 217.504 130.286 217.113 129.766C216.788 129.18 216.723 128.464 216.918 127.617C216.592 127.031 216.397 126.445 216.332 125.859C215.941 126.641 215.648 127.454 215.453 128.301L215.062 129.277L214.086 129.473C213.956 129.538 213.858 129.701 213.793 129.961C213.728 130.156 213.695 130.319 213.695 130.449L213.207 132.109C213.077 132.24 212.947 132.37 212.816 132.5C212.686 132.565 212.556 132.663 212.426 132.793C212.296 133.379 212.133 133.965 211.938 134.551C211.742 135.137 211.547 135.69 211.352 136.211C211.026 137.057 210.733 137.904 210.473 138.75C210.277 139.531 210.212 140.312 210.277 141.094L209.887 142.168C209.561 142.559 209.203 142.884 208.812 143.145C208.422 143.34 208.031 143.535 207.641 143.73C207.51 143.861 207.315 143.991 207.055 144.121C206.859 144.186 206.697 144.251 206.566 144.316L206.273 145.391L205.102 145.586C204.385 145.716 203.865 145.814 203.539 145.879C203.279 145.944 202.953 145.977 202.562 145.977L201.586 145.879C200.87 145.293 200.316 144.837 199.926 144.512C199.535 144.121 199.079 143.763 198.559 143.438C197.973 142.656 197.647 142.07 197.582 141.68C197.517 141.289 197.452 140.931 197.387 140.605C197.257 140.215 197.191 139.889 197.191 139.629C197.126 139.368 197.029 139.173 196.898 139.043L195.629 137.871L196.703 136.992L196.801 135.332C198.103 132.012 199.47 128.822 200.902 125.762C202.4 122.702 203.93 119.577 205.492 116.387C206.013 115.345 206.501 114.303 206.957 113.262C207.478 112.22 207.999 111.178 208.52 110.137C208.454 109.941 208.422 109.714 208.422 109.453C208.422 109.193 208.487 108.9 208.617 108.574C209.333 107.467 209.919 106.491 210.375 105.645C210.831 104.733 211.286 103.822 211.742 102.91C212.263 101.803 212.784 100.729 213.305 99.6875C213.891 98.6458 214.607 97.5716 215.453 96.4648L217.016 95.7812C217.211 95.7161 217.439 95.651 217.699 95.5859C217.96 95.4557 218.253 95.3906 218.578 95.3906L220.043 95.5859C221.866 94.7396 223.461 93.5677 224.828 92.0703C226.195 90.5078 227.595 88.6523 229.027 86.5039L230.004 85.1367L231.273 85.918C231.599 86.1133 232.055 86.3086 232.641 86.5039C233.227 86.6341 233.845 86.7969 234.496 86.9922C235.668 87.2526 236.775 87.5456 237.816 87.8711C238.858 88.1966 239.704 88.6849 240.355 89.3359C240.746 90.3776 240.974 91.1589 241.039 91.6797C241.104 92.2005 241.202 92.7214 241.332 93.2422C241.527 94.349 241.69 95.4557 241.82 96.5625C242.016 97.6693 242.146 98.9062 242.211 100.273C242.536 101.38 242.797 102.487 242.992 103.594C243.253 104.635 243.48 105.71 243.676 106.816C244.001 108.379 244.327 109.909 244.652 111.406C244.978 112.839 245.401 114.206 245.922 115.508C246.443 115.508 246.768 115.54 246.898 115.605C247.224 115.475 247.549 115.378 247.875 115.312C248.266 115.247 248.689 115.182 249.145 115.117L250.219 115.02L250.609 115.996C250.674 116.322 251 116.647 251.586 116.973C252.432 117.038 253.051 117.233 253.441 117.559C253.832 117.819 254.19 118.112 254.516 118.438C254.776 118.698 255.036 118.893 255.297 119.023L256.762 119.609L255.98 121.074C255.329 122.246 254.385 123.385 253.148 124.492C251.977 125.534 250.642 126.413 249.145 127.129C249.21 127.52 249.242 127.91 249.242 128.301C249.307 128.626 249.405 128.984 249.535 129.375C249.73 130.482 249.893 131.621 250.023 132.793C250.154 133.965 250.154 135.169 250.023 136.406L249.828 136.797ZM221.605 119.902C223.559 119.772 225.316 119.642 226.879 119.512C228.507 119.316 230.297 119.023 232.25 118.633C231.794 116.68 231.306 114.661 230.785 112.578C230.264 110.43 229.711 108.314 229.125 106.23L228.539 107.207C227.237 108.574 225.967 110.104 224.73 111.797C223.559 113.49 222.549 115.085 221.703 116.582C221.312 117.168 220.922 117.754 220.531 118.34C220.141 118.926 219.783 119.512 219.457 120.098C219.848 120.033 220.206 120 220.531 120C220.922 120 221.28 119.967 221.605 119.902ZM255.883 101.055C256.339 99.6875 257.055 98.5156 258.031 97.5391C259.073 96.5625 260.18 95.7487 261.352 95.0977C262.589 94.3815 263.858 93.7956 265.16 93.3398C266.462 92.8841 267.699 92.4935 268.871 92.168C271.475 91.0612 274.242 90.0195 277.172 89.043C280.167 88.0013 283.194 87.0898 286.254 86.3086C289.379 85.5273 292.569 85.0391 295.824 84.8438C299.079 84.5833 302.497 84.974 306.078 86.0156C306.273 86.6667 306.566 87.2852 306.957 87.8711C307.348 88.457 307.738 89.043 308.129 89.6289C308.585 90.2148 308.975 90.8008 309.301 91.3867C309.626 91.9076 309.822 92.4609 309.887 93.0469C310.538 93.6328 311.059 94.2839 311.449 95C311.84 95.651 311.905 96.5299 311.645 97.6367C310.993 98.1576 310.342 98.6458 309.691 99.1016C309.105 99.4922 308.454 99.8503 307.738 100.176C305.329 99.5898 302.888 99.3945 300.414 99.5898C297.94 99.7852 295.727 99.9479 293.773 100.078C293.188 99.4922 292.471 99.1992 291.625 99.1992C290.844 99.1992 289.997 99.3294 289.086 99.5898C288.24 99.8503 287.361 100.111 286.449 100.371C285.603 100.632 284.789 100.697 284.008 100.566C283.357 101.087 282.543 101.445 281.566 101.641C280.655 101.771 279.646 101.901 278.539 102.031C278.474 102.357 278.539 102.585 278.734 102.715C278.93 102.78 278.962 102.975 278.832 103.301C279.223 103.757 279.711 104.082 280.297 104.277C280.948 104.473 281.599 104.668 282.25 104.863C282.966 105.059 283.585 105.319 284.105 105.645C284.626 105.905 284.984 106.361 285.18 107.012C286.156 107.012 287.003 107.24 287.719 107.695C288.435 108.151 289.021 108.704 289.477 109.355C289.932 110.007 290.258 110.723 290.453 111.504C290.714 112.22 290.844 112.871 290.844 113.457C291.039 113.978 291.267 114.206 291.527 114.141C291.788 114.076 292.081 114.206 292.406 114.531C292.602 115.378 293.09 116.257 293.871 117.168C294.652 118.014 295.271 118.958 295.727 120C295.857 121.628 295.954 123.092 296.02 124.395C296.085 125.632 295.857 126.901 295.336 128.203C294.359 130.612 292.992 132.76 291.234 134.648C289.542 136.536 287.589 138.229 285.375 139.727C283.227 141.159 280.915 142.396 278.441 143.438C275.967 144.479 273.559 145.358 271.215 146.074C270.954 146.009 270.694 146.009 270.434 146.074C270.173 146.139 270.108 145.977 270.238 145.586C269.717 146.042 269.132 146.335 268.48 146.465C267.895 146.595 267.243 146.628 266.527 146.562C265.811 146.562 265.062 146.53 264.281 146.465C263.565 146.4 262.882 146.432 262.23 146.562C261.775 146.107 261.352 145.651 260.961 145.195C260.635 144.805 260.375 144.284 260.18 143.633C259.854 143.633 259.691 143.47 259.691 143.145C259.757 142.819 259.659 142.656 259.398 142.656C259.789 142.005 259.952 141.647 259.887 141.582C259.887 141.452 259.789 141.354 259.594 141.289C259.464 141.224 259.333 141.159 259.203 141.094C259.073 140.964 259.04 140.801 259.105 140.605C259.366 140.085 259.464 139.499 259.398 138.848C259.333 138.132 259.268 137.415 259.203 136.699C259.138 135.983 259.171 135.299 259.301 134.648C259.496 133.997 259.984 133.477 260.766 133.086C262.979 133.346 265.062 133.281 267.016 132.891C269.034 132.435 270.922 131.816 272.68 131.035C274.438 130.254 276.098 129.408 277.66 128.496C279.288 127.585 280.883 126.771 282.445 126.055C282.641 125.469 282.901 124.98 283.227 124.59C283.617 124.199 284.008 123.841 284.398 123.516C284.789 123.19 285.147 122.832 285.473 122.441C285.798 122.051 286.026 121.562 286.156 120.977C286.221 120.521 286.091 120.26 285.766 120.195C285.505 120.065 285.375 119.805 285.375 119.414L284.301 119.121C283.064 118.405 281.664 117.819 280.102 117.363C278.539 116.842 277.204 116.289 276.098 115.703C275.382 116.094 274.698 116.191 274.047 115.996C273.461 115.801 272.68 115.605 271.703 115.41C269.49 115.28 267.341 115.052 265.258 114.727C263.24 114.401 261.286 113.815 259.398 112.969C259.268 112.643 259.105 112.35 258.91 112.09C258.715 111.829 258.357 111.764 257.836 111.895C257.445 111.374 257.055 110.885 256.664 110.43C256.273 109.909 255.915 109.355 255.59 108.77C255.72 107.988 255.818 107.337 255.883 106.816C255.948 106.23 255.753 105.677 255.297 105.156C255.557 104.31 255.753 103.626 255.883 103.105C256.013 102.585 256.013 101.901 255.883 101.055Z" fill="#8257E5"/>
</svg>
