<svg width="60" height="60" viewBox="0 0 60 60" fill="none" xmlns="http://www.w3.org/2000/svg">
<rect x="0.75" y="-0.75" width="58.5" height="58.5" rx="7.25" transform="matrix(1 0 0 -1 0 58.5)" stroke="#DCDCE6" stroke-width="1.5"/>
<path d="M30 23V23.01V23ZM30 30V30.01V30ZM30 37V37.01V37ZM30 24C29.7348 24 29.4804 23.8946 29.2929 23.7071C29.1054 23.5196 29 23.2652 29 23C29 22.7348 29.1054 22.4804 29.2929 22.2929C29.4804 22.1054 29.7348 22 30 22C30.2652 22 30.5196 22.1054 30.7071 22.2929C30.8946 22.4804 31 22.7348 31 23C31 23.2652 30.8946 23.5196 30.7071 23.7071C30.5196 23.8946 30.2652 24 30 24ZM30 31C29.7348 31 29.4804 30.8946 29.2929 30.7071C29.1054 30.5196 29 30.2652 29 30C29 29.7348 29.1054 29.4804 29.2929 29.2929C29.4804 29.1054 29.7348 29 30 29C30.2652 29 30.5196 29.1054 30.7071 29.2929C30.8946 29.4804 31 29.7348 31 30C31 30.2652 30.8946 30.5196 30.7071 30.7071C30.5196 30.8946 30.2652 31 30 31ZM30 38C29.7348 38 29.4804 37.8946 29.2929 37.7071C29.1054 37.5196 29 37.2652 29 37C29 36.7348 29.1054 36.4804 29.2929 36.2929C29.4804 36.1054 29.7348 36 30 36C30.2652 36 30.5196 36.1054 30.7071 36.2929C30.8946 36.4804 31 36.7348 31 37C31 37.2652 30.8946 37.5196 30.7071 37.7071C30.5196 37.8946 30.2652 38 30 38Z" stroke="#DCDCE5" stroke-width="2" stroke-linecap="round" stroke-linejoin="round"/>
</svg>
